<svg xmlns="http://www.w3.org/2000/svg" height="200" width="400" ><defs><linearGradient gradientUnits="userSpaceOnUse" y2="74.053" x2="259.587" y1="74.053" x1="144.147" id="A"><stop stop-color="#e1be78" offset="0"/><stop stop-color="#e3ab36" offset="1"/></linearGradient><linearGradient gradientUnits="userSpaceOnUse" y2="95.978" x2="256.96" y1="25.869" x1="135.528" id="B"><stop stop-color="#e1be78" offset="0"/><stop stop-color="#fffad1" offset=".34"/><stop stop-color="#c69632" offset=".75"/><stop stop-color="#fcdc99" offset=".995"/></linearGradient><linearGradient gradientUnits="userSpaceOnUse" y2="33.322" x2="157.421" y1="33.322" x1="102.245" id="C"><stop stop-color="#ffe3a8" offset="0"/><stop stop-color="#d2a249" offset="1"/></linearGradient></defs><path d="M259.22 10.75a145.463 145.463 0 0 0-18.36-5.976 172.044 172.044 0 0 0-26.208-4.21L202.053 0h-.37l-12.598.565a172.044 172.044 0 0 0-26.208 4.22 145.463 145.463 0 0 0-18.36 5.976l-.37.14 1.292 66.836a61.303 61.303 0 0 0 3.516 19.122 92.014 92.014 0 0 0 10.009 19.831 79.518 79.518 0 0 0 15.499 16.98 69.297 69.297 0 0 0 7.364 5.398 93.599 93.599 0 0 0 12.575 6.362l3.83 1.573a28.261 28.261 0 0 0 3.634 1.126A28.356 28.356 0 0 0 205.5 147c1.14-.386 2.4-.964 3.83-1.573a93.828 93.828 0 0 0 12.575-6.362 69.693 69.693 0 0 0 7.364-5.398 79.509 79.509 0 0 0 15.497-16.98 91.926 91.926 0 0 0 10.009-19.831 61.257 61.257 0 0 0 3.516-19.122l1.292-66.8a3.709 3.709 0 0 0-.368-.172z" fill="url(#A)"/><path d="M200.474 124.476h-32.772a79.617 79.617 0 0 0 7.813 7.441 66.872 66.872 0 0 0 7.081 5.226 90.102 90.102 0 0 0 12.091 6.169l3.682 1.542 2.1.723v-21.1zm0-24.463a24.041 24.041 0 0 1-13.39-5.552q-.353-.3-.694-.6h-36.184q.36 1.157.77 2.352a85.092 85.092 0 0 0 4.937 11.274h44.556zm55.982-37.456h-31.943v2.473l-.02 11.503h31.654zm.56-29.352H202.43v13.548h54.336l.247-13.548z" fill="#b12b28"/><g fill-rule="evenodd"><g fill="#613e18"><path d="M256.445 91.286l.02-.085-.015.058z"/><path d="M244.724 116.653c-4.316 6.38-9.536 12.102-15.497 16.982-2.334 1.958-4.794 3.76-7.364 5.398a93.83 93.83 0 0 1-12.575 6.362l-3.83 1.573a28.58 28.58 0 0 1-3.634 1.126 28.58 28.58 0 0 1-3.634-1.126c-1.14-.386-2.4-.964-3.83-1.573a93.6 93.6 0 0 1-12.575-6.362 69.54 69.54 0 0 1-7.364-5.398 81.45 81.45 0 0 1-13.269-13.822l.154.226a80.54 80.54 0 0 0 13.456 14.352 70.83 70.83 0 0 0 7.484 5.398c3.878 2.4 7.926 4.537 12.112 6.362l3.83 1.57a22.23 22.23 0 0 0 3.634 1.134c1.235-.297 2.45-.676 3.634-1.134 1.14-.386 2.4-.964 3.83-1.57a93.82 93.82 0 0 0 12.575-6.362 69.68 69.68 0 0 0 7.364-5.398 79.6 79.6 0 0 0 15.497-16.98 92.57 92.57 0 0 0 9.986-19.937 53.64 53.64 0 0 0 1.735-6.188l-1.712 5.538c-2.523 7-5.883 13.648-10 19.83zm12.338-104.167l-.096-.042a138.81 138.81 0 0 0-17.68-5.795 163.33 163.33 0 0 0-25.23-4.1L201.924 2h-.357l-12.13.55a164.3 164.3 0 0 0-25.236 4.106 137.27 137.27 0 0 0-17.543 5.783l-.347.145.013.848a1.03 1.03 0 0 1 .251-.116l.083-.042a137.24 137.24 0 0 1 17.543-5.783 164.08 164.08 0 0 1 25.236-4.116l12.13-.567h.36l12.13.55c8.506.7 16.944 2.083 25.236 4.106a138.64 138.64 0 0 1 17.68 5.797l.096.042a3.53 3.53 0 0 1 .355.156v-.825a3.53 3.53 0 0 0-.347-.148zm-67.534 6.844l10.903-.524v-.804l-10.903.52a162.62 162.62 0 0 0-25.192 4.1 140.04 140.04 0 0 0-17.66 5.808l-.087.04.013.794c.014-.012.03-.02.048-.027a143.63 143.63 0 0 1 17.645-5.783 162.41 162.41 0 0 1 25.233-4.112z"/></g><path d="M224.444 78.75h31.52a2.558 2.558 0 0 0 .096-.719l-31.615-.012z" fill="#634014"/><path d="M241.22 102.84v.297c0 .212-.035.27-.193.322a7.451 7.451 0 0 0-3.47 1.829 2.602 2.602 0 0 0-.193.193l-.07-.067c-.02-.02-.023-.1-.027-.123-.02-.193.108-.337.337-.546a7.439 7.439 0 0 1 3.451-1.772c.106-.01.154-.054.164-.135zm-6.312-3.663a7.206 7.206 0 0 0-2.755 1.928 4.627 4.627 0 0 0-1.184 1.982c0 .03-.07.193.042.25a5.423 5.423 0 0 1 1.105-1.652 7.002 7.002 0 0 1 2.699-1.928.254.254 0 0 0 .162-.216l.058-.495a.129.129 0 0 1-.125.129zm-6.676-1.515a9.203 9.203 0 0 0-3.387 3.59 5.656 5.656 0 0 0-.627 2.506c0 .1 0 .193.08.226a.156.156 0 0 0 .066.019 6.489 6.489 0 0 1 .553-2.313 7.699 7.699 0 0 1 3.35-3.381 2.313 2.313 0 0 0 .164-.997.472.472 0 0 1-.2.349zm-8.806 1.843a5.483 5.483 0 0 0-1.349 1.621 6.905 6.905 0 0 0-.935 4.418 7.966 7.966 0 0 1 1.028-3.813 4.958 4.958 0 0 1 1.214-1.585 1.66 1.66 0 0 0 .152-.837h0a.21.21 0 0 1-.11.193zm-14.005 11.6a.093.093 0 0 0 .027-.162 2.776 2.776 0 0 1-1.022-1.847h0a2.404 2.404 0 0 0 .771 2.142 1.889 1.889 0 0 1 .224-.135zm29.263-28.22a5.643 5.643 0 0 0-2.269 1.802 5.484 5.484 0 0 0-1.313 2.344c-.02.087-.038.204.027.258h0a6.554 6.554 0 0 1 1.288-2.041 5.446 5.446 0 0 1 2.244-1.764c.193-.106.245-.343.243-.84h0c-.013.104-.1.185-.22.237zm8.727 1.452a6.763 6.763 0 0 0-3.036 1.322 6.379 6.379 0 0 0-1.883 2.146c-.013.03-.15.22.08.293a6.957 6.957 0 0 1 1.735-1.818 6.859 6.859 0 0 1 3.029-1.384.25.25 0 0 0 .18-.235v-.47c.012.07-.02.145-.106.145zm6.53 4.3c0 .093-.04.154-.13.145a5.858 5.858 0 0 0-3.397 1.222 5.249 5.249 0 0 0-.719.605c-.174.125-.135.23-.12.25a1.98 1.98 0 0 0 .193.17 5.577 5.577 0 0 1 .538-.422 6.117 6.117 0 0 1 3.483-1.324c.1-.02.16-.35.15-.65zm-38.68 11.117h0v.1a1.523 1.523 0 0 1-1.17 1.378 2.094 2.094 0 0 1-2.284-.438 1.945 1.945 0 0 1-1.876.675 2.101 2.101 0 0 1-1.384-.987l-.193-.617h-.044q-.964.106-1.928.135v.578l1.966-.135a3.084 3.084 0 0 0 .181.609 2.228 2.228 0 0 0 1.297.95 2.022 2.022 0 0 0 1.928-.652 2.298 2.298 0 0 0 2.394.441 1.563 1.563 0 0 0 1.078-1.349 6.261 6.261 0 0 0 .037-.696zm1.65 16.694a2.786 2.786 0 0 1-2.766 0 3.482 3.482 0 0 1-.918-.923c-.048-.1-.135-.14-.158-.12a2.83 2.83 0 0 1-2.173.713 2.988 2.988 0 0 1-2.146-1.222 3.138 3.138 0 0 1-.555-1.779l-.033.066a3.47 3.47 0 0 0 .627 2.236 2.724 2.724 0 0 0 1.982 1.255 3.021 3.021 0 0 0 2.242-.787c.023-.02.1.033.158.123a4.702 4.702 0 0 0 .912.948 2.724 2.724 0 0 0 2.726.019 3.277 3.277 0 0 0 1.405-2.579 2.549 2.549 0 0 1-1.303 2.051zm20.132 4.135a8.648 8.648 0 0 0-1.818.877 5.604 5.604 0 0 0-1.855 2.429c.012.03.027.083.044.096l.077.052a5.608 5.608 0 0 1 1.718-2.121 8.648 8.648 0 0 1 1.822-.885c.062-.03.116-.357.1-.547-.006.044-.035.073-.096.093zm-4.596-2.7a.089.089 0 0 1-.064.079 6.437 6.437 0 0 0-4.295 3.485c-.012.027-.014.162.015.173l.135.042a6.907 6.907 0 0 1 4.093-3.19c.1-.02.112-.347.116-.6zm-8-.644a10.697 10.697 0 0 0-1.993 2.52 3.952 3.952 0 0 0-.42 2.423.139.139 0 0 0 .081.121h0a3.74 3.74 0 0 1 .445-2.015 11.671 11.671 0 0 1 1.87-2.435 2.475 2.475 0 0 0 .094-.771.249.249 0 0 1-.075.135zm-6.967 2.78a3.753 3.753 0 0 0-.95 3.379h0a3.663 3.663 0 0 1 1.01-2.859 2.72 2.72 0 0 0 .037-.659.235.235 0 0 1-.096.139zm-3.537 6.9l.18-.14c.104-.042-.073-.145-.1-.174a5.733 5.733 0 0 1-.611-1.612 7.11 7.11 0 0 1-.193-1.457h0a10.096 10.096 0 0 0 .193 1.856 7.852 7.852 0 0 0 .519 1.523zm3.47 6.718a1.995 1.995 0 0 1-1.995.401 3.277 3.277 0 0 1-1.625-1.236c-.054-.064-.173.02-.193.04a3.73 3.73 0 0 1-2.2 1.928 2.273 2.273 0 0 1-1.791-.544 1.98 1.98 0 0 1-.675-1.511h0c0 1.58.193 1.683.68 2.03a2.433 2.433 0 0 0 1.86.54 3.736 3.736 0 0 0 2.2-1.928c0-.02.13-.104.193-.04a3.277 3.277 0 0 0 1.625 1.236 1.997 1.997 0 0 0 1.995-.401 2.803 2.803 0 0 0 .771-2.121 2.419 2.419 0 0 1-.842 1.606zm-7.433-3l.3-.24c.07-.048 0-.104-.033-.12a2.313 2.313 0 0 1-1.567-1.982h0a2.629 2.629 0 0 0 1.317 2.344zM149.7 40.022h0a.193.193 0 0 0 .062-.276 2.466 2.466 0 0 1-.268-1.018v-.01.038a5.938 5.938 0 0 0 .21 1.267zm1.735 30.603l.038-.035c.077-.07.14-.204.077-.3a5.477 5.477 0 0 1-.607-.939 1.797 1.797 0 0 1-.137-.709h0a4.889 4.889 0 0 0 .172 1.29 2.643 2.643 0 0 0 .455.682zm8.097 2.495v.048a1.829 1.829 0 0 1-1.064 1.563 2.641 2.641 0 0 1-2.186.376 3.163 3.163 0 0 1-1.349-.894c-.147-.164-.308 0-.476.1a10.1 10.1 0 0 1-1.425.752 2.175 2.175 0 0 1-2.737-.711 2.522 2.522 0 0 1-.494-1.421h0a3.514 3.514 0 0 0 .48 1.951 2.259 2.259 0 0 0 2.789.771 10.127 10.127 0 0 0 1.428-.748c.168-.116.28-.32.428-.154a3.483 3.483 0 0 0 1.409.947 2.543 2.543 0 0 0 2.186-.376 1.804 1.804 0 0 0 1.004-2.063zm-2.178-15.094a2.157 2.157 0 0 1-1.068 1.806 2.288 2.288 0 0 1-3.204-.771c-.035-.093-.335-.154-.45-.054a3.884 3.884 0 0 1-2.282.669 2.076 2.076 0 0 1-1.829-1.297 1.885 1.885 0 0 1-.177-.702 2.471 2.471 0 0 0 .152 1.11 2.178 2.178 0 0 0 1.812 1.425 4.064 4.064 0 0 0 2.344-.69.266.266 0 0 1 .368.062 2.4 2.4 0 0 0 3.243.987c.804-.534 1.128-1.033 1.093-2.54zm-7.2-2.872a1.303 1.303 0 0 1 .118-.073c.077-.042.05-.164 0-.27a2.011 2.011 0 0 1-.578-1.363 3.019 3.019 0 0 0 .447 1.662zm11.536 3.813a6.801 6.801 0 0 0-1.652 3.044 7.245 7.245 0 0 0-.023 2.485 7.046 7.046 0 0 1 .096-1.889 6.728 6.728 0 0 1 1.592-3.003c.03-.038.03-.112.03-.25v-.505a.218.218 0 0 1-.039.123zm7.252-2.387a6.205 6.205 0 0 0-2.994 6.362h0a6.109 6.109 0 0 1 3.015-5.722c.093-.07.07-.505.07-.798h0a.204.204 0 0 1-.085.16zm3.663 4.407c-.023.066.15.193.22.183l.193-.02a11.823 11.823 0 0 1 4.139-5.205c.07-.05.066-.314.07-.428v-.386a.233.233 0 0 1-.1.193 11.748 11.748 0 0 0-4.513 5.662zm-10.43-16.4a4.081 4.081 0 0 0-1.508 1.49 5.739 5.739 0 0 0-.904 4.174.669.669 0 0 0 .06.233h0a6.086 6.086 0 0 1 .987-3.684 3.555 3.555 0 0 1 1.361-1.438.085.085 0 0 0 .046-.069v-.77a.075.075 0 0 1-.031.068zm7.7-2.04a6.394 6.394 0 0 0-2.138 1.824 8.012 8.012 0 0 0-1.454 3.219.441.441 0 0 0 .227.386 8.646 8.646 0 0 1 1.419-2.892 6.053 6.053 0 0 1 1.986-1.889c.193-.083.204-.25.204-.45v-.438c.01.104-.112.183-.23.243zm9.176-.212a6.898 6.898 0 0 0-3.235 1.093 4.546 4.546 0 0 0-2.121 2.976.357.357 0 0 0 .243.357 5.107 5.107 0 0 1 2.059-2.608 6.574 6.574 0 0 1 3.096-1.189c.162-.02.14-.226.14-.386V42.1a.231.231 0 0 1-.17.237zm3.686 4.343l.295-.193a9.832 9.832 0 0 1 3.597-1.432c.135-.012.193-.077.193-.386v-.318c0 .05-.048.07-.116.077a10.574 10.574 0 0 0-4.413 1.928c-.18.177-.355.295-.1.322zm-18.584-18.9a14.792 14.792 0 0 0-3.16 2.892 7.167 7.167 0 0 0-1.033 4.048c0 .046.077.068.143.07a7.395 7.395 0 0 1 1.081-3.404 18.314 18.314 0 0 1 3.029-2.978 3.061 3.061 0 0 0 .056-.889h0a.386.386 0 0 1-.116.262zm10.078-2.313a.137.137 0 0 1-.035.091 21.25 21.25 0 0 0-3.042 2.392 6.265 6.265 0 0 0-1.639 3.69c0 .042.077.116.116.106l.104-.02a7.491 7.491 0 0 1 1.56-3.013 19.817 19.817 0 0 1 2.87-2.39c.077-.07.066-.297.066-.386v-.46zm10.327-.578a11.2 11.2 0 0 0-4.195 2.335 6.292 6.292 0 0 0-1.617 3.235c0 .058.1.077.177.087a6.518 6.518 0 0 1 1.481-2.576 12.249 12.249 0 0 1 4.193-2.385c.116-.042.154-.193.162-.318v-.63a.328.328 0 0 1-.202.239zm8.725 4.13a22.032 22.032 0 0 0-3.719.349 5.234 5.234 0 0 0-2.065 1.349.166.166 0 0 0 .06.235l.366.106a4.914 4.914 0 0 1 1.629-.974 22.156 22.156 0 0 1 3.73-.31c.087-.01.204-.102.204-.193v-.67c-.01.058-.13.083-.204.092zm-35.74 13.753c-.278.916-.55 1.002-1.257 1.504a2.818 2.818 0 0 1-2.259.386 2.732 2.732 0 0 1-1.241-.866.166.166 0 0 0-.177-.027 7.042 7.042 0 0 1-1.521.771 2.19 2.19 0 0 1-2.645-.864 1.648 1.648 0 0 1-.114-.206l-.027-.07-.064-.193-.02-.07-.042-.222v-.052a2.246 2.246 0 0 1-.021-.28 1.666 1.666 0 0 0 0 .17 3.503 3.503 0 0 0 .291 1.641 2.564 2.564 0 0 0 2.788.898 10.576 10.576 0 0 0 1.471-.829.162.162 0 0 1 .175.025 3.084 3.084 0 0 0 1.292.943 3.029 3.029 0 0 0 2.261-.422 2.207 2.207 0 0 0 .943-1.076 2.442 2.442 0 0 0 .193-1.315.706.706 0 0 1-.027.139zm35.055-5.525a.613.613 0 0 1-.386.307.332.332 0 0 1-.345-.139 14.505 14.505 0 0 0-8.92-3.416 59.836 59.836 0 0 0-25.89 6.635c-.083.042-.147.222-.077.283a1.349 1.349 0 0 1 .289.397 59.79 59.79 0 0 1 25.822-6.603 14.505 14.505 0 0 1 8.92 3.416.447.447 0 0 0 .386.193c.147-.04.243-.3.28-.424a7.027 7.027 0 0 0 .098-1.585 3.04 3.04 0 0 1-.183.923zm-13.176 14a11.06 11.06 0 0 0-2.818-.632 40.836 40.836 0 0 0-19.395 5.436c-.093.05-.258.235-.218.334a5.398 5.398 0 0 1 .193.536.721.721 0 0 1 .166-.152 40.795 40.795 0 0 1 19.395-5.436 9.851 9.851 0 0 1 2.678.613.484.484 0 0 1 .137.052v-.698a.567.567 0 0 0-.137-.066zm.16 13.58h0v.13h-.3a31.099 31.099 0 0 0-10.425 1.232 45.698 45.698 0 0 0-10.246 4.511c-.218.13-.206.12 0 .332a1.43 1.43 0 0 1 .166.212 46.118 46.118 0 0 1 10.154-4.411 30.96 30.96 0 0 1 10.427-1.294h.212zm35.812 30.825a24.166 24.166 0 0 1-4.578 2.525h0l.222.4.03.064a24.849 24.849 0 0 0 4.324-2.419h0l.14-.04c2.313-.578 11.547-3.898 17.22-3.97a20.242 20.242 0 0 1 10.036 2.415 17.203 17.203 0 0 1 4.214 3.455c.038.044.077.162.227.193a.22.22 0 0 0 .208-.135 7.46 7.46 0 0 0 .509-2.992 7.029 7.029 0 0 1-.509 2.414.222.222 0 0 1-.208.133c-.15-.023-.18-.193-.224-.235a17.113 17.113 0 0 0-4.218-3.406 20.313 20.313 0 0 0-10.032-2.493c-5.673.077-14.844 3.422-17.144 4.002l-.216.073zm24.174 16.606a1.01 1.01 0 0 1-.723.152 17.396 17.396 0 0 0-2.473-2.481 9.404 9.404 0 0 0-3.906-1.928 19.17 19.17 0 0 0-6.637-.179 33.204 33.204 0 0 0-12.101 4.154c-.193.135-.3.193-.206.285s.135.17.193.247a33.46 33.46 0 0 1 12.068-4.089 19.335 19.335 0 0 1 6.637.135 9.273 9.273 0 0 1 3.879 1.928 17.635 17.635 0 0 1 2.506 2.477 1.014 1.014 0 0 0 .725-.152 3.856 3.856 0 0 0 .36-1.587h0a2.284 2.284 0 0 1-.322 1.024zm-9.113 16.12c-.083.077-.308 0-.386-.048a9.525 9.525 0 0 0-2.086-1.646 11.1 11.1 0 0 0-6.321-1.024 18.241 18.241 0 0 0-8.644 3.798c-.16.12-.23.308-.154.366l.193.17a18.586 18.586 0 0 1 8.658-3.827 11.117 11.117 0 0 1 6.321 1.024 9.571 9.571 0 0 1 2.084 1.648.434.434 0 0 0 .386-.05 2.313 2.313 0 0 0 .7-1.928 2.217 2.217 0 0 1-.771 1.502z" fill="#432918"/><path d="M257.197 26.854l.23-14.188s-.1 0-.1.052.025.524-.1.648l-.208 13.348z" fill="#36250d"/></g><path d="M221.552 89.377l.513-.12 3.13-.694c.116 0 .193-.166.224-.22a13.525 13.525 0 0 1 1.883-4.297 5.251 5.251 0 0 1 2.872-1.999 5.191 5.191 0 0 1 4.648.386.339.339 0 0 1-.058.578 5.423 5.423 0 0 0-2.244 1.762 5.591 5.591 0 0 0-1.369 2.35c-.02.096-.042.23.052.276.135.093 1.658.015 2.263.14.116.023.14-.077.222-.202a8.633 8.633 0 0 1 2.743-4.152 5.205 5.205 0 0 1 4.819-.858 3.391 3.391 0 0 1 2.313 1.864c.035.058.035.24-.1.24a6.921 6.921 0 0 0-3.046 1.384 6.186 6.186 0 0 0-1.874 2.082c-.013.035-.164.24.116.305a17.799 17.799 0 0 1 2.281.661c.087.1.297-.013.34-.08a5.936 5.936 0 0 1 3.788-2.572c2.313-.36 4.515.644 4.877 2.184.05.218.1.492-.077.47a6.061 6.061 0 0 0-3.47 1.303 4.098 4.098 0 0 0-.652.524c-.177.125-.135.23-.12.25.5.52 2.24 1.78 2.363 3.52a7.031 7.031 0 0 1-.49 3.185.222.222 0 0 1-.208.133c-.15-.025-.193-.143-.227-.193a17.24 17.24 0 0 0-4.214-3.455 20.242 20.242 0 0 0-10.036-2.415c-5.67.077-14.927 3.393-17.22 3.97l-.14.04 6.098-6.354zm14.684 11.515a5.652 5.652 0 0 0-2.797 2.566c-.04.07-.14.308-.23.23l-2.043-.24c-.25-.02-.154-.243-.145-.28a4.586 4.586 0 0 1 1.191-1.955 7.254 7.254 0 0 1 2.747-1.959.129.129 0 0 0 .096-.193 3.856 3.856 0 0 0-2.869-1.411 4.991 4.991 0 0 0-3.807 1.465 7.748 7.748 0 0 0-2.082 4.575c-.054.14-.12.206-.226.208a12.255 12.255 0 0 1-1.721.16c-.1-.025-.085-.125-.08-.224a5.623 5.623 0 0 1 .627-2.506 9.19 9.19 0 0 1 3.387-3.59c.226-.154.24-.472.164-.507a5.621 5.621 0 0 0-5.323.519 5.762 5.762 0 0 0-2.417 2.531 16.363 16.363 0 0 0-1.06 4.781.386.386 0 0 1-.237.218 17.697 17.697 0 0 0-2.067.534.166.166 0 0 1-.141-.125 6.832 6.832 0 0 1 .92-4.484 5.483 5.483 0 0 1 1.349-1.621.231.231 0 0 0-.108-.426 6.049 6.049 0 0 0-3.998.706 5.481 5.481 0 0 0-2.788 4.12 9.805 9.805 0 0 0 .258 3.663c0 .038.04.166-.096.193l-2.2 1.1c-.03.014-.112.035-.135-.038a3.584 3.584 0 0 0-1.654-2.211 3.246 3.246 0 0 0-2.749.133 3.383 3.383 0 0 0-1.334 1.388 2.313 2.313 0 0 0 .785 2.809c.04.04.104.116 0 .154-.553.297-.565.386-.964.997a2.643 2.643 0 0 0 .318 2.768 2.992 2.992 0 0 0 2.094 1.251 2.961 2.961 0 0 0 2.225-.742c.023-.02.1.033.158.123a3.381 3.381 0 0 0 .881.937 2.861 2.861 0 0 0 2.803 0 2.55 2.55 0 0 0 1.294-2.562 2.329 2.329 0 0 0-.677-1.621c-.08-.096 0-.148.206-.285a33.321 33.321 0 0 1 12.101-4.112 19.278 19.278 0 0 1 6.637.137 9.274 9.274 0 0 1 3.877 1.928 17.562 17.562 0 0 1 2.506 2.479 1.01 1.01 0 0 0 .723-.152 4.07 4.07 0 0 0 .089-3.19 9.874 9.874 0 0 0-2.367-3.638c-.02-.02-.023-.087-.025-.123-.02-.193.093-.278.32-.488a7.48 7.48 0 0 1 3.47-1.839c.168-.01.23-.13.125-.324a4.048 4.048 0 0 0-4.991-1.839zm23.35-89.93l-1.292 66.813a61.255 61.255 0 0 1-3.516 19.12 91.926 91.926 0 0 1-10.009 19.831 79.463 79.463 0 0 1-15.497 16.98 69.423 69.423 0 0 1-7.364 5.398 94.087 94.087 0 0 1-12.575 6.362l-3.83 1.57a28.356 28.356 0 0 1-3.634 1.126 28.261 28.261 0 0 1-3.634-1.126c-1.143-.386-2.4-.964-3.83-1.57a93.857 93.857 0 0 1-12.575-6.362 69.029 69.029 0 0 1-7.364-5.398 79.472 79.472 0 0 1-15.499-16.98 92.014 92.014 0 0 1-10.009-19.831 61.303 61.303 0 0 1-3.516-19.12L144.15 10.94s.12-.042.37-.14a145.147 145.147 0 0 1 18.36-5.965A171.808 171.808 0 0 1 189.098.611l12.598-.565h.37l12.598.565a171.808 171.808 0 0 1 26.218 4.222 145.147 145.147 0 0 1 18.36 5.965 3.709 3.709 0 0 1 .349.162zM149.762 92.3h35.085a19.401 19.401 0 0 1-5.168-12.945V78.8h-32a60.102 60.102 0 0 0 2.103 13.5zm50.72 32.194H167.7a79.378 79.378 0 0 0 7.811 7.441 66.872 66.872 0 0 0 7.081 5.226 90.219 90.219 0 0 0 12.091 6.169l3.682 1.542 2.1.723v-21.103zm0-15.258h-43.62q1.735 3.13 3.755 6.227a69.126 69.126 0 0 0 5.542 7.295h34.324zm0-9.207a24.041 24.041 0 0 1-13.396-5.544l-.694-.6h-36.176l.77 2.352a84.951 84.951 0 0 0 4.937 11.274h44.558zm0-81.757l-10.905.53a163.989 163.989 0 0 0-25.202 4.089 138.518 138.518 0 0 0-17.656 5.783.864.864 0 0 0-.085.039l.964 48.356h32.07l-.02-12.023h-.3a31.058 31.058 0 0 0-10.425 1.28 45.844 45.844 0 0 0-10.246 4.465c-.218.13-.206.12 0 .328a5.442 5.442 0 0 1 .883 1.662 1.887 1.887 0 0 1-1.037 2.088 2.641 2.641 0 0 1-2.186.386 3.362 3.362 0 0 1-1.386-.943c-.147-.162-.262.042-.43.158a10.1 10.1 0 0 1-1.425.752 2.25 2.25 0 0 1-2.784-.758 2.442 2.442 0 0 1 .066-2.913c.297-.308.794-.54 1.147-.86.077-.07.14-.204.077-.3a5.552 5.552 0 0 1-.607-.939 2.506 2.506 0 0 1 .731-2.66 2.56 2.56 0 0 1 2.639-.218c.54.235.964 1 1.3 1.48.073.106.168.193.274.102l.842-.5c.1-.077.05-.312 0-.436-1.045-2.6-1.292-4.366-.312-6.204a4.565 4.565 0 0 1 2.944-2.34 3.32 3.32 0 0 1 2.331.148c.07.033.048.17 0 .23a6.805 6.805 0 0 0-1.652 3.042 6.431 6.431 0 0 0 .129 3.011c.077.17.162.235.293.193l1.993-.67c.148-.04.058-.278.03-.42a8.045 8.045 0 0 1 .193-4.891 5.941 5.941 0 0 1 5.627-3.277c.4 0 .945.386.632.627a6.205 6.205 0 0 0-2.994 6.362.216.216 0 0 0 .229.172l2.4-.688c.135-.042.106-.262.116-.4a8.739 8.739 0 0 1 1.928-5.398 6.709 6.709 0 0 1 5.521-2.236 2.323 2.323 0 0 1 1.033.578.355.355 0 0 1-.058.411 11.542 11.542 0 0 0-4.474 5.612c-.023.064.104.193.193.18l3.643-.386c.177-.015.193-.042.22-.148a6.204 6.204 0 0 1 2.664-3.393 1.068 1.068 0 0 0 .206-.148V51.38a.499.499 0 0 0-.139-.052 10.898 10.898 0 0 0-2.818-.632 40.79 40.79 0 0 0-19.395 5.436c-.096.05-.26.235-.218.334.744 1.76.295 2.8-.7 3.47a2.379 2.379 0 0 1-3.277-.771.268.268 0 0 0-.368-.062 3.871 3.871 0 0 1-2.282.671 2.078 2.078 0 0 1-1.829-1.297 2.597 2.597 0 0 1 1.696-3.295c.135-.04.112-.148.02-.256a2.202 2.202 0 0 1 .47-3.277 2.406 2.406 0 0 1 3.518 1.365c.038.13.046.08.173.044a3.455 3.455 0 0 0 1.137-.432c.154-.07.337-.617.34-.758.093-2.973-.048-4.84 1.928-6.77.86-.84 3.663-1.5 4.368-.578.048.064.065.135 0 .193a4.048 4.048 0 0 0-1.508 1.49 5.739 5.739 0 0 0-.904 4.174c.02.077.023.27.1.243l2.468-.918c.1-.04 0-.193 0-.3a8.453 8.453 0 0 1 1.694-5.618c1.288-1.417 4.492-2.853 6.05-1.494.145.125 0 .312-.164.397a6.213 6.213 0 0 0-2.109 1.795 8.079 8.079 0 0 0-1.504 3.221c-.027.125.154.386.278.386l2.7-.54c.366-.125.262-.208.328-.578a6.499 6.499 0 0 1 5.849-5.949 4.683 4.683 0 0 1 3.111.47 3.258 3.258 0 0 1 .652.578.245.245 0 0 1-.129.386 6.805 6.805 0 0 0-3.198 1.105 4.551 4.551 0 0 0-2.121 2.982c-.013.148.067.343.216.343l2.9-.077a.245.245 0 0 0 .239-.193 6.072 6.072 0 0 1 3.856-3.719 5.538 5.538 0 0 1 5.739 1.307c.193.247.148.322.014.334a10.549 10.549 0 0 0-4.413 1.928c-.183.177-.355.295-.1.322h18.2zm14.975 77.458h.013a24.213 24.213 0 0 1-4.627 2.547l.033-.013.222.4a2.67 2.67 0 0 1 .204 1.278 1.452 1.452 0 0 1-1.085 1.401 2.298 2.298 0 0 1-2.392-.414 1.949 1.949 0 0 1-1.887.663 2.053 2.053 0 0 1-1.349-1.022l-.193-.617a22.728 22.728 0 0 1-1.949.143l-.02 45.727c.713-.193 1.735-.563 2.92-.964 1.1-.372 2.302-.93 3.682-1.542a90.102 90.102 0 0 0 12.091-6.169 66.481 66.481 0 0 0 7.081-5.226 76.845 76.845 0 0 0 14.904-16.473 89.419 89.419 0 0 0 9.625-19.237 59.805 59.805 0 0 0 3.368-17.944h-31.615v1.076a20.296 20.296 0 0 1-9.041 16.374zm41-33.158h-31.943v2.473l-.02 11.5h31.654l.312-13.976zm.274-13.847h-32.194v11.9h31.982l.212-11.898zm.283-15.505H202.44v13.548h54.336l.247-13.558zm.077-4.507a.902.902 0 0 0-.087-.039 138.489 138.489 0 0 0-17.654-5.783 163.989 163.989 0 0 0-25.202-4.089l-11.72-.54v13.22h54.625q.015-1.427.038-2.776zm.27-15.846a3.532 3.532 0 0 0-.355-.156 138.822 138.822 0 0 0-17.654-5.783 163.995 163.995 0 0 0-25.202-4.093l-12.114-.55h-.355l-12.114.55a163.995 163.995 0 0 0-25.202 4.093 138.851 138.851 0 0 0-17.656 5.783l-.353.135.235 14.073a.754.754 0 0 1 .118-.062 139.129 139.129 0 0 1 17.656-5.783 164.225 164.225 0 0 1 25.202-4.106l12.13-.66h.355l12.1.66a164.225 164.225 0 0 1 25.202 4.089 139.102 139.102 0 0 1 17.654 5.783.613.613 0 0 1 .118.062l.237-14.046zm-29.6 106.577a6.72 6.72 0 0 0-2.134 2.448c-.033.058-.077.24-.16.193l-1.3-.397c-.03 0-.03-.147-.015-.193a6.882 6.882 0 0 1 4.295-3.483c.093-.04.064-.123.044-.193-.675-1.658-4.08-1.517-5.74-.457a7.214 7.214 0 0 0-3.042 4.405c-.02.123.038.222-.044.243a7.593 7.593 0 0 1-1.417.341.147.147 0 0 1-.141-.139 3.958 3.958 0 0 1 .42-2.425 12.318 12.318 0 0 1 1.993-2.52.266.266 0 0 0-.013-.386 3.069 3.069 0 0 0-3.146 0 6.065 6.065 0 0 0-2.928 3.455 6.722 6.722 0 0 0 .077 3.524c.015.044.067.147-.012.18l-1.32.598c-.023 0-.145.035-.168-.03a3.894 3.894 0 0 1 .538-4.544c.1-.092.166-.193-.048-.3a3.626 3.626 0 0 0-3.277 1.188 4.174 4.174 0 0 0-.725 4.068 5.733 5.733 0 0 0 .611 1.612c.02.027.193.127.1.173l-.93.7c-.02.02-.083.048-.116 0a2.996 2.996 0 0 0-1.789-1.469 2.105 2.105 0 0 0-1.962.54 2.232 2.232 0 0 0 .912 3.719c.04.02.104.073.03.12a3.638 3.638 0 0 0-1.174 1.313 2.331 2.331 0 0 0 .526 2.506 2.288 2.288 0 0 0 1.791.544 3.726 3.726 0 0 0 2.198-1.928c.012-.02.135-.104.193-.04a3.277 3.277 0 0 0 1.625 1.236 2.001 2.001 0 0 0 1.995-.401 2.157 2.157 0 0 0 .686-2.468 3.759 3.759 0 0 0-1.245-1.336c-.077-.062-.013-.212.147-.335a18.314 18.314 0 0 1 8.652-3.83 11.114 11.114 0 0 1 6.321 1.022 9.535 9.535 0 0 1 2.086 1.648c.08.046.308.123.386.046a2.45 2.45 0 0 0 .22-3.379 4.023 4.023 0 0 0-1.27-1.012c-.02-.012-.033-.067-.044-.096a5.591 5.591 0 0 1 1.855-2.427 8.42 8.42 0 0 1 1.822-.885c.135-.04.116-.116.044-.285-.78-1.797-3.913-1.866-5.388-.92zM190.3 26.468a3.736 3.736 0 0 1 3.258 2.464c.027.083-.106.168-.193.177a22.135 22.135 0 0 0-3.728.31 5.961 5.961 0 0 0-2.065 1.349.164.164 0 0 0 .06.235 7.472 7.472 0 0 1 3.776 2.121 4.075 4.075 0 0 1 1.255 4.181.609.609 0 0 1-.332.353.445.445 0 0 1-.386-.193 12.764 12.764 0 0 0-4.463-2.572 12.629 12.629 0 0 0-4.457-.844 59.809 59.809 0 0 0-25.89 6.635c-.083.042-.147.22-.077.28a2.406 2.406 0 0 1 .557 1.856c-.278.916-.55 1-1.257 1.504a2.421 2.421 0 0 1-3.501-.488.166.166 0 0 0-.177-.027 7.449 7.449 0 0 1-1.521.798 2.175 2.175 0 0 1-2.645-.848 2.73 2.73 0 0 1 1.267-3.678.193.193 0 0 0 .062-.276 2.228 2.228 0 0 1 .858-3.013c.964-.56 3.1-.916 3.686.918a.156.156 0 0 0 .204.118 11.021 11.021 0 0 0 1.421-.549c.108-.05.17-.3.12-.5a8.611 8.611 0 0 1 1.224-6.94c2.016-2.286 4.4-3.335 6.94-2.313.102.04 0 .24-.07.32-.997 1.006-2.377 1.687-3.113 2.892a7.206 7.206 0 0 0-1.08 4.048c0 .07.174.083.24.058l4.38-1.457c.1-.03.3-.04.283-.14a12.762 12.762 0 0 1 .177-2.531 6.967 6.967 0 0 1 4.162-5.353 6.379 6.379 0 0 1 4.916-.073c.1.04.154.247.077.316a21.684 21.684 0 0 0-3.042 2.441 6.074 6.074 0 0 0-1.592 3.643c0 .042.03.116.07.106a37.271 37.271 0 0 1 4.174-.771.27.27 0 0 0 .247-.226c.212-1.292 1.26-4.893 3.027-6.053a7.622 7.622 0 0 1 6.416-1.18 3.377 3.377 0 0 1 1.238 1.047c.077.096-.064.276-.173.318a12.315 12.315 0 0 0-4.195 2.383 5.837 5.837 0 0 0-1.571 3.189c0 .085.13.1.193.1l3.663.038a.22.22 0 0 0 .202-.123 6.892 6.892 0 0 1 3.084-3.406 8.164 8.164 0 0 1 4.27-.625z" fill="url(#B)"/><g fill-rule="evenodd"><path d="M150.394 30.536c2.353.63 4.67 1.383 6.942 2.26.06.023.066.088.07.152l.008 1.037c0 .113-.07.13-.192.086l-5.17-1.662c-.026-.007-.07.007-.07.033v.615c0 .027.032.05.058.06l5.246 1.674a.09.09 0 0 1 .062.082v1.495c0 .028 0 .068-.03.058l-5.35-1.734c-.024-.006-.07 0-.07.023l-.023.58a.09.09 0 0 0 .058.082 53.34 53.34 0 0 1 5.315 1.733c.044.018.075.06.08.106.02.44 0 .9-.008 1.33 0 .03 0 .107-.1.07a71.72 71.72 0 0 0-6.91-2.24c-.04-.01-.058-.065-.058-.1l.114-5.676c0-.02 0-.063.024-.058zm-8.018 4.2l1.45.237c.046.01.112-.024.112-.07l-.012-2.03c0-.045.02-.047.064-.04l3.53.7c.024.006.165.025.165.1l-.042 1.973a.13.13 0 0 0 .086.127l1.348.32c.116.027.136.008.138-.037l.116-5.708c0-.026-.01-.064-.037-.07l-1.446-.338c-.045-.01-.07.066-.073.112L147.7 32.1c0 .026 0 .04-.027.034l-3.626-.73c-.032-.007-.017-.063-.016-.1l.01-2.1c-.004-.045-.037-.083-.08-.093l-1.336-.22c-.035 0-.068.044-.07.08l-.168 5.672zm-6.1-6.593a1.29 1.29 0 0 0-1.32 1.06l-.03 3.825c.018.445.33.823.764.926l6.054.7c.033.005.1-.024.1-.057v-1.33a.16.16 0 0 0-.09-.094l-5.083-.62a.24.24 0 0 1-.185-.223v-2.6c0-.1.156-.167.266-.158l5.072.628c.044 0 .114-.023.115-.068l.035-1.22a.12.12 0 0 0-.093-.105l-5.607-.655zm-2.595-.18h0l-5.767-.06c-.4.016-.923.348-.93.738l-.026 2.07c-.006.425.554.757.978.766l4.218.1c.106.008.2.07.2.176l-.01.42c.003.04-.01.077-.038.105s-.065.043-.105.04c-1.668 0-3.413-.08-5.1.055-.088.007-.084-.016-.1.072l-.074 1.227-.008.1c2.007-.116 4.02-.116 6.026 0 .483-.015.9-.366.976-.842l.02-2.005c0-.412-.507-.718-.838-.74l-4.462-.078a.15.15 0 0 1-.139-.158l.028-.465c0-.1.06-.117.15-.12l5 .063a.23.23 0 0 0 .193-.224v-1.016c0-.054-.1-.215-.2-.217m-8.508 3.7a1.01 1.01 0 0 0 .629-.992 13.87 13.87 0 0 0-.067-1.807c-.106-.45-.498-.772-.96-.8-1.353.024-4.292.4-5.958.608l-.008 5.866 1.506-.2c.012-.001.023-.007.03-.016s.01-.022.01-.034V32.63l3.034-.326c.265-.05.576.147.818.54a2.8 2.8 0 0 1 .366 1.086l1.493-.1c.032 0 .1 0 .093-.03a3.16 3.16 0 0 0-.988-2.122zm-1.05-1.236a.55.55 0 0 1-.446.53l-3.4.333-.03-.023v-1.307l.028-.014 3.558-.344c.067-.01.135.007.2.048s.087.103.093.17zm-5.3-1.764v.02zm-.9 1.2a.9.9 0 0 0-.35-.633.97.97 0 0 0-.731-.256l-5.24 1.02a1.6 1.6 0 0 0-.737.458c-.188.17-.305.406-.33.66l.014 3.577a1.39 1.39 0 0 0 .339.85.77.77 0 0 0 .652.352l5.23-1.03a1.59 1.59 0 0 0 .858-.533c.2-.2.3-.463.314-.74zm-1.733 3.34a.4.4 0 0 1-.157.334.93.93 0 0 1-.382.151l-3.194.608a.33.33 0 0 1-.28-.055.42.42 0 0 1-.1-.323v-2.322a.46.46 0 0 1 .129-.311.79.79 0 0 1 .384-.19l3.1-.55a.53.53 0 0 1 .355.063c.116.073.184.204.175.34zm-6.275-1.616a.87.87 0 0 0-.379-.628c-.267-.2-.603-.26-.924-.2-2.083.533-4.17 1.326-6.26 2.1a.2.2 0 0 0-.1.166v4.7l.012 1.057 1.833-.674c.044-.014.044-.055.044-.1l-.033-1.666c0-.047.008-.116.052-.13l5.2-1.605a.97.97 0 0 0 .442-.322.76.76 0 0 0 .166-.5zm-1.68 1.74c0 .147-.208.316-.348.357l-3.793 1.236c-.036.01-.1 0-.1-.04L104 33.74c0-.055.064-.1.116-.114a34.61 34.61 0 0 1 3.852-1.29c.115-.032.223.1.233.2a5.55 5.55 0 0 1 .03.794z" fill="url(#C)" transform="matrix(1.927767 0 0 1.927767 -48.681891 -50.12193)"/><path d="M152.026 15.262c-.1.03-.227.116-.227.222v-.565c0-.106.123-.193.224-.222h0c2.417-.972 4.9-1.8 7.405-2.48.222-.064.434.193.453.376l.058.55c-.02-.18-.262-.443-.482-.386a66.7 66.7 0 0 0-7.43 2.506h0m11.258-.23a1.46 1.46 0 0 1-.318.952 1.9 1.9 0 0 1-.852.621l-10.005 3.06c-.08.025-.096.147-.096.235l.013.56c0-.1 0-.22.085-.245l10.005-3.084a1.89 1.89 0 0 0 .852-.62 1.46 1.46 0 0 0 .318-.952v-.54zM152.07 23.13c0 .1 0 .168-.085.193l-3.54 1.3v.455a.84.84 0 0 1 0 .106l3.54-1.3c.087-.027.087-.106.085-.193zM175 8.902a1.03 1.03 0 0 0-.682-.121l-5.965 1.06a1.5 1.5 0 0 0-.738.364c-.156.16-.245.375-.25.6v.613c.004-.224.093-.438.25-.6.207-.188.463-.314.738-.364l5.965-1.06a1.03 1.03 0 0 1 .682.123.71.71 0 0 1 .328.654h0l.01-.607a.72.72 0 0 0-.335-.67zm1.382 8.18l-10.055 1.982a1.48 1.48 0 0 1-1.255-.677 2.71 2.71 0 0 1-.648-1.542v-.096.598a2.91 2.91 0 0 0 .654 1.542c.4.467.867.796 1.25.713l10.063-1.928c.647-.154 1.226-.514 1.65-1.026.365-.386.58-.9.605-1.42v-.617a2.22 2.22 0 0 1-.605 1.42c-.423.517-1.004.88-1.654 1.037zm13.664-10.12l-6.86.663-.054.027v.617l.054-.027 6.86-.66c.13-.022.26.01.364.1a.47.47 0 0 1 .18.33v-.617a.47.47 0 0 0-.542-.432zm3.784 2.7v-.7a2.01 2.01 0 0 1-1.213 1.955 3.87 3.87 0 0 1 .411.36c.53-.372.832-.988.804-1.635zm.495 5.417l-2.878.212a5.4 5.4 0 0 0-.706-2.094c-.467-.756-1.066-1.134-1.577-1.04l-5.85.628v.578l5.847-.63c.5-.096 1.1.285 1.577 1.04.377.64.617 1.353.706 2.092l2.878-.193c.062 0 .193 0 .18-.058v-.578c.004.054-.116.046-.173.05zm-11.08 1.033l-2.892.374v.578l2.892-.386c.023-.001.045-.012.06-.03s.022-.04.02-.064v-.578c.003.023-.003.047-.018.065s-.036.03-.06.032zm25.778-8.935c.212-.035.37-.217.372-.432v-.578c-.004.215-.16.397-.372.432l-9.64-.12c-.193 0-.28.062-.3.23l-.04.555c0-.193.154-.204.328-.212 2.747-.106 6.84.025 9.64.112zm-11.08 3.965l8.13.193c.193.013.37.12.366.32l.02-.578c0-.204-.18-.324-.386-.34l-8.13-.193c-.817-.02-1.897-.655-1.885-1.477v.578c-.01.8 1.07 1.45 1.9 1.465zm9.668 3.836a100.66 100.66 0 0 0-11.617 0v.578a100.66 100.66 0 0 1 11.617 0 1.97 1.97 0 0 0 1.882-1.621v-.578a1.97 1.97 0 0 1-1.88 1.612zM224.728 8.1l-9.778-1.2c-.193-.02-.513.093-.513.305v.578c0-.193.3-.322.513-.308l9.778 1.214c.085 0 .22-.044.222-.13v-.6c0 .077-.135.13-.22.13zm-.16 8.58l-11.67-1.33c-.835-.198-1.437-.927-1.473-1.785v.578c.036.858.637 1.587 1.473 1.785l11.638 1.3c.062 0 .193-.046.193-.1l.035-.578c-.008.052-.13.106-.193.096zm11.437-1.37l.012-.578c0-.154-.27-.193-.318-.193l-6.805-1.35c-.085-.013-.125-.01-.123.077v.578c0-.087.03-.1.116-.077l6.805 1.35c.058-.004.312.035.316.18zm-7.426 2.005l-2.795-.457v.492l2.76.44c.087.02.216-.046.216-.135l.025-.436c-.044.07-.126.104-.206.1zm10.12 2.088l-2.6-.617a.25.25 0 0 1-.166-.245v.578c-.003.1.064.207.166.245l2.564.6c.222.054.26.015.264-.07l.04-.578c-.002.083-.042.12-.264.067zm15.704-3.836l-9.967-3.204c-.05-.013-.135.013-.135.064v.565c0-.048.093-.077.14-.064 3.482.887 7.252 2.205 9.915 3.187.23.085.366.052.37-.166l.04-.5c-.02.164-.15.187-.366.108zm.193 4.538l-10.314-3.343c-.046-.012-.135 0-.135.044l-.027.578c.05-.025.107-.033.162-.025l10.275 3.34c.05.02.058-.058.058-.1l.033-.578c-.002.054-.01.12-.058.102zm-.193 4.24a137.61 137.61 0 0 0-13.319-4.318c-.077-.02-.112-.125-.112-.193v.578c0 .077.04.183.112.193a137.45 137.45 0 0 1 13.284 4.3c.193.067.193-.077.193-.14l.033-.52c0 .062-.04.148-.185.1z" fill="#432918"/></g><path d="M351.5 177.852v5.976h47.05v5.093H351.5v5.976h47.05v5.078h-53.037v-27.182h53.037v5.078zm-19.04 5.938h-36.358v-11.062h-5.976v27.197h5.976V189.77h36.358v10.154h5.976v-27.197h-5.976zm-98.636-5.012v15.18a6.005 6.005 0 0 0 5.999 6.042l43.33-.044v-5.976h-42.52a.804.804 0 0 1-.783-.736V179.6a.964.964 0 0 1 .977-.842h42.328v-5.976h-43.26a6.047 6.047 0 0 0-6.071 6.011zm-13.17 5.04l-38.17.015a.95.95 0 0 1-1.008-.939v-4.073a.964.964 0 0 1 1.002-.964h43.32v-5.08h-44.422a5.976 5.976 0 0 0-5.905 6.038v4.077a6.045 6.045 0 0 0 6.044 6.044l38.17-.014a.964.964 0 0 1 1.004.941h0v4.1a.947.947 0 0 1-1.004.939H176.32v5.078h44.366a6.028 6.028 0 0 0 6.04-6.015h0v-4.087a6.065 6.065 0 0 0-6.044-6.044zm-52.1 16.012v.07h-6.015v-1.068a6.044 6.044 0 0 0-6.042-6.044H123.17v7.152h-5.976v-27.2h45.303a6.003 6.003 0 0 1 6.011 5.995v5.895a6.007 6.007 0 0 1-5.783 6.04 10.061 10.061 0 0 1 5.839 9.153zm-6.053-20.05a1.041 1.041 0 0 0-1.02-1.031l-38.32-.012v8.07h38.43a.981.981 0 0 0 .906-.999h0zm-52.537-1.022v15.183a5.976 5.976 0 0 1-6.001 6.017h-38.26a6.028 6.028 0 0 1-6.071-5.997v-15.18a6.047 6.047 0 0 1 6.072-6.018h38.35a5.976 5.976 0 0 1 5.909 5.997zM104 179.78a1.06 1.06 0 0 0-1.049-1.028H66.637a.964.964 0 0 0-.977.842v13.652a.798.798 0 0 0 .781.736h36.614a1.022 1.022 0 0 0 .964-.997zm-51.394-1.022v8.02a6.007 6.007 0 0 1-6.028 6.015H7.416v7.16H1.44v-27.197h45.148a6.007 6.007 0 0 1 6.036 6.003zm-6 1.026a1.041 1.041 0 0 0-1.02-1.031l-38.17-.012v8.07h38.305a.975.975 0 0 0 .906-.999zM254.324 14.312l-.027.906h-.013l-.702-.266-.492-.193-.058-.02-3.5-1.195-3.15-.964-.023-.01h-.025l-.864-.245-.898-.25-.758-.208v2.146l.804.22.578.166.588.166 3.798 1.157 3.726 1.253.295.102.667.226v.293l-.027 1.908-.038-.014-.646-.193-.45-.14-4.048-1.35-4.24-1.272-1.1-.318-.04 2.1.447.135.87.254.852.254.347.106.343.106q1.837.56 3.537 1.134l3.47 1.172.112.048.56.212a16.918 16.918 0 0 1-.05 2.015h-.023l-.894-.32-5.976-1.976-5.8-1.754v-.04l.073-4.268.108-6.17c.183.027 4.08 1.145 5.963 1.754l5.64 1.953.067.027.424.148.605.218v.987zm-15.68-5.687l-.848-.212-1.08-.24v.713l-.012.386v.492l-.03 1.018-.062 1.045v.24l-.02.436h-.02l-.515-.106-.386-.077-.322-.07-.32-.068-2.42-.5-2.506-.5-.12-.02-.116-.023-.613-.116-.6-.106-.162-.03.038-2.383V6.468l-.515-.08-.386-.062q-.23-.04-.468-.077l-.65-.096v.495l-.07 2.43-.125 4.014-.033.852-.044 1.268-.023 1.34.54.1.312.054.53.1.8.127h.033l.01-.8.012-.598.02-.752.02-1.324v-.24l.012-.494c.052 0 .254.042.332.058l.077.015.087.015 2.487.482 4.174.837.848.193h.027l-.015.752v.623l-.014.7-.02.67v.8l-.02.42v.03l1.095.256.395.096.623.143V18.8l.02-.617v-.295l.096-4.133.058-4.58V8.64h-.02zm-20.75-3.74l-3.746-.4a2.095 2.095 0 0 0-1.502.513 1.837 1.837 0 0 0-.771 1.228c-.046.443-.02 3.597-.02 3.597l-.02 3.77a1.552 1.552 0 0 0 .096.559 1.188 1.188 0 0 0 .285.438 1.598 1.598 0 0 0 .742.397 2.142 2.142 0 0 0 .459.064h.1l.1.01 4.877.476 5.012.578.77.116.015-1.04v-.894l-1.573-.226h-.077l-.077-.01-4.102-.5-4.14-.482a.326.326 0 0 1-.208-.11.343.343 0 0 1-.087-.226v-5.6a.578.578 0 0 1 .193-.509.997.997 0 0 1 .578-.193c.9.07 8.565 1.1 9.78 1.265l.02-.948v-1.1l-6.734-.802zM193.72 12.83a5.348 5.348 0 0 1 .528 1.951l-2.42.147a7.626 7.626 0 0 0-.744-2.007 1.98 1.98 0 0 0-1.905-1.157l-6.23.665c-.02.015 0 3.308 0 3.308l-1.118.15-1.118.148V5.456l11.07-1.072c1.105.067 1.35.644 1.413 1.226a23.019 23.019 0 0 1 .131 3.68 2.458 2.458 0 0 1-1.157 1.567 6.362 6.362 0 0 1 1.55 1.972zm-2.66-5.475a.694.694 0 0 0-.212-.578 1.349 1.349 0 0 0-.783-.204l-7.18.713-.01 1.596v1.596l6.907-.623a1.475 1.475 0 0 0 .931-.422 1.282 1.282 0 0 0 .355-.908zm-12.955.077l.044 7.12a2.292 2.292 0 0 1-1.675 1.978l-9.832 1.937c-.738.154-1.677-.798-1.677-1.58l-.013-7.075c0-.783.852-1.413 1.58-1.592l9.882-1.943a1.465 1.465 0 0 1 1.691 1.155zm-2.275 1.9c0-.605-.262-1.137-1.182-1l-6.33 1.137c-1.06.206-1.47.605-1.47 1.5v4.52c0 .646.397 1.126 1.07 1.002l6.98-1.35a1.218 1.218 0 0 0 .964-1.265l-.03-4.57zm32.203-.856l-2.64-.092-2.718-.02h-3.7a.33.33 0 0 1-.162-.091.563.563 0 0 1-.116-.351 3.243 3.243 0 0 1 .013-.395V7.13a5.255 5.255 0 0 1 .052-.912c.058-.13.193-.193.492-.212l7.416.035 2.205.03V4.23l-2.976-.116h-.204l-1.974-.044c-2.647-.04-5.517 0-5.83 0a1.799 1.799 0 0 0-.835.341.879.879 0 0 0-.424.578l-.05 4.276a.817.817 0 0 0 .426.578 1.762 1.762 0 0 0 .887.301l1.407.023 1.37.014 2.88.04 2.903.12c.27.02.386.13.438.295a2.45 2.45 0 0 1 .017.644l-.023.497a1.448 1.448 0 0 1-.085.679c-.085.127-.25.173-.598.173-.02 0-.964-.02-1.35-.02h-3.922l-2.275.03-2.12.102-.073 1.845 2.973-.112 2.34-.03 1.85.027 1.658.062 1.157.044 1.305.04a1.481 1.481 0 0 0 .831-.339 1.022 1.022 0 0 0 .451-.706l.04-4.056a1.049 1.049 0 0 0-.386-.652 1.294 1.294 0 0 0-.682-.372zm-45.272 2.352l.096 4.208a1.043 1.043 0 0 1-.339.806 1.359 1.359 0 0 1-.538.368l-10.4 3.248.058 3.572-2.766.98v-5.012l-.058-5.297c.008-.092.058-.12.204-.173l7.268-2.55 4.472-1.33a1.845 1.845 0 0 1 1.322.22 1.349 1.349 0 0 1 .673.96zm-2.365 3.223a23.596 23.596 0 0 0-.079-1.477.902.902 0 0 0-.247-.513.748.748 0 0 0-.536-.241h-.127l-3.586 1.087-4.415 1.633.046 3.136 7.975-2.564a1.596 1.596 0 0 0 .628-.386 1.02 1.02 0 0 0 .337-.677zm34.655 37.487v2.9a1.639 1.639 0 0 1-.212.929.85.85 0 0 1-.771.345.9.9 0 0 1-.787-.345 1.588 1.588 0 0 1-.229-.929v-2.9a.386.386 0 1 0-.771 0v2.64a2.826 2.826 0 0 0 .386 1.619 1.606 1.606 0 0 0 1.411.642 1.542 1.542 0 0 0 1.409-.642 2.913 2.913 0 0 0 .351-1.615v-2.67a.39.39 0 1 0-.781 0zm3.92.318a.372.372 0 1 0 0-.744h-2.17a.372.372 0 1 0 0 .744h.713v4.216a.386.386 0 1 0 .771 0v-4.216zm3.455 0a.372.372 0 1 0 0-.744h-2.184a.372.372 0 1 0 0 .744h.713v4.216a.386.386 0 1 0 .771 0v-4.216zm4.183 1.484h-1.188c-.322 0-.362.164-.362.308a.353.353 0 0 0 .362.386h.837v.237a1.436 1.436 0 0 1-1.031 1.504.979.979 0 0 1-.947-.634 3.229 3.229 0 0 1-.281-1.403 3.084 3.084 0 0 1 .335-1.373.937.937 0 0 1 .821-.615 1.022 1.022 0 0 1 .815.553.328.328 0 0 0 .432.121.287.287 0 0 0 .193-.364 1.427 1.427 0 0 0-1.45-.964 1.396 1.396 0 0 0-1.367.771 3.553 3.553 0 0 0-.492 1.872 3.809 3.809 0 0 0 .453 1.912 1.577 1.577 0 0 0 1.401.896 1.858 1.858 0 0 0 .925-.26 2.46 2.46 0 0 0 .92-1.454 4.922 4.922 0 0 0 .073-.945c0-.258-.064-.547-.45-.547zm12.723-1.484a.372.372 0 1 0 0-.744h-2.178a.372.372 0 1 0 0 .744h.713v4.216a.386.386 0 1 0 .771 0v-4.216zm-4.492 2.63l.123-.044a1.891 1.891 0 0 0 .717-.463 1.444 1.444 0 0 0 .441-1.22 1.71 1.71 0 0 0-.665-1.27 2.248 2.248 0 0 0-1.286-.36H213a.386.386 0 0 0-.312.125.445.445 0 0 0-.1.297v4.48a.37.37 0 0 0 .386.414.364.364 0 0 0 .386-.411v-1.42h.723l1.157 1.594a.401.401 0 0 0 .341.174c.227 0 .362-.12.366-.318a.524.524 0 0 0-.137-.339zm-1.498-.6v-2.024h.925a1.101 1.101 0 0 1 .796.281.918.918 0 0 1 .318.673 1.108 1.108 0 0 1-1.236 1.068zm-3.084-2.385a.675.675 0 0 0-.54-.441.623.623 0 0 0-.542.461l-1.432 4.497a.345.345 0 0 0 .064.32.386.386 0 0 0 .27.172c.193 0 .37-.027.443-.27l.216-.8h2.038l.235.77a.401.401 0 0 0 .386.272.405.405 0 0 0 .335-.154.482.482 0 0 0 .021-.424zm.218 3.347h-1.58l.84-2.892.88 2.892zm-22.632-1.064a3.78 3.78 0 0 0-1.654-.497.704.704 0 0 1-.578-.829.879.879 0 0 1 .927-.598 1.238 1.238 0 0 1 .964.42c.212.254.592-.025.592-.235 0-.243-.372-.92-1.504-.93a1.953 1.953 0 0 0-1.135.324 1.349 1.349 0 0 0-.623 1.01 1.531 1.531 0 0 0 .426 1.213 1.556 1.556 0 0 0 1.062.424 1.349 1.349 0 0 1 1.188.607.644.644 0 0 1-.145.713 1.378 1.378 0 0 1-.91.31 1.467 1.467 0 0 1-.964-.386.513.513 0 0 0-.505-.164c-.276.093-.23.424-.193.482a1.835 1.835 0 0 0 1.623.864 2.018 2.018 0 0 0 1.525-.544 1.521 1.521 0 0 0 .416-1.08 1.245 1.245 0 0 0-.511-1.107zm3.424-1.882a.374.374 0 1 0 0-.746h-2.198a.374.374 0 1 0 0 .746h.713v4.212a.386.386 0 1 0 .771 0V51.88zM159.96 31.53a7.75 7.75 0 0 1 2.793-3.235c.594-.37.613-.52.605-.56s-.106-.104-.902-.1a5.666 5.666 0 0 0-3.196 1.349 7.299 7.299 0 0 0-2.265 3.647 14.215 14.215 0 0 0 .096 4.929l-2.7 1.33a4.222 4.222 0 0 0-.771-1.488 2.009 2.009 0 0 0-2.234-.241 1.596 1.596 0 0 0-.914 1.642 2.901 2.901 0 0 0 .617 1.425 3.574 3.574 0 0 0-1.457.894 2.142 2.142 0 0 0-.542 2.011 1.471 1.471 0 0 0 1.592.914 4.659 4.659 0 0 0 2.234-1.176 10.541 10.541 0 0 0 .908.952 1.903 1.903 0 0 0 1.157.386 2.099 2.099 0 0 0 .95-.229 1.706 1.706 0 0 0 .856-1.658c-.096-.945-.997-1.317-.945-1.664a55.984 55.984 0 0 1 14.476-5.633 53.785 53.785 0 0 1 10.472-1.656 16.27 16.27 0 0 1 6.678.68 10.689 10.689 0 0 1 4.729 2.631l.033.03a4.418 4.418 0 0 0-2.454-3.871 8.918 8.918 0 0 0-3.927-1.311 7.813 7.813 0 0 1 1.193-1.558 5.34 5.34 0 0 1 2.737-1.425 17.329 17.329 0 0 1 2.751-.158 2.078 2.078 0 0 0-1.868-1.268 6.396 6.396 0 0 0-3.154.285 7.539 7.539 0 0 0-3.973 4.073 46.793 46.793 0 0 0-5.591.029 9.3 9.3 0 0 1 1.619-4.183 7.829 7.829 0 0 1 3.827-2.452 2.225 2.225 0 0 0 .632-.312c-.316-.308-.742-.617-2.313-.675a6.126 6.126 0 0 0-5.028 2.764 10.834 10.834 0 0 0-1.579 4.92l-6.42 1.417a10.217 10.217 0 0 1 .758-3.541 8.374 8.374 0 0 1 3.15-3.412l.636-.434a2.62 2.62 0 0 0-1.292-.193 6.572 6.572 0 0 0-2.851.771 5.831 5.831 0 0 0-2.978 5.068c-.044.455.087 2.25 0 2.68a65.966 65.966 0 0 0-6.79 2.14 8.27 8.27 0 0 1 .644-4.524zm24.932 12.806l1.047-.314a2.205 2.205 0 0 0-.515-.366 4.519 4.519 0 0 0-2.203-.517 5.477 5.477 0 0 0-2.281.478 6.419 6.419 0 0 0-3.025 3.815l-2.442.1-2.537.174a7.243 7.243 0 0 1 .193-1.282 6.084 6.084 0 0 1 1.222-2.323 6.568 6.568 0 0 1 3.796-2.19l.35-.096a2.915 2.915 0 0 0-1.66-.474 6.333 6.333 0 0 0-6.267 5.88l-.112.694-1.83.395a20.473 20.473 0 0 0-3.052.761 9.061 9.061 0 0 1 .91-3.53 8.309 8.309 0 0 1 2.165-2.67 8 8 0 0 1 .702-.534 4.07 4.07 0 0 0-.964-.129 4.615 4.615 0 0 0-4.272 2.959 12.436 12.436 0 0 0-.75 4.837c-.952.23-3.117 1.06-4.004 1.403a8.077 8.077 0 0 1 .035-3.578 5.641 5.641 0 0 1 1.446-2.699 7.904 7.904 0 0 1 .636-.578c-.058-.02-.247-.135-1.122.058a4.627 4.627 0 0 0-3.277 3.171 19.638 19.638 0 0 0-.407 4.91l-2.595 1.182a4.073 4.073 0 0 0-.468-1.24 1.617 1.617 0 0 0-1.349-.725 2.109 2.109 0 0 0-.902.22 1.157 1.157 0 0 0-.578.702 1.515 1.515 0 0 0 .091 1.174 3.832 3.832 0 0 0 .441.63 12.646 12.646 0 0 1 .401.549 4.54 4.54 0 0 0-1.569.79 1.668 1.668 0 0 0-.536 2.178 1.407 1.407 0 0 0 1.309.771 3.393 3.393 0 0 0 2.313-1.147l.7 1.068a1.461 1.461 0 0 0 1.261.65 1.683 1.683 0 0 0 .792-.193 1.787 1.787 0 0 0 .86-1.554 2.415 2.415 0 0 0-.64-1.473l-.14-.193 1.267-.667a41.061 41.061 0 0 1 6.338-2.892 50.122 50.122 0 0 1 10.828-2.529 12.754 12.754 0 0 1 2.29-.133 8.981 8.981 0 0 1 2.768.615v-3.827h1.527a7.029 7.029 0 0 1 3.8-2.313zm-5.3 14.17v5.58l-1.802-.1a41.034 41.034 0 0 0-14.516 3.557 49.274 49.274 0 0 0-5.991 3.127 3.385 3.385 0 0 1 1.517 1.662c.314 1.1-.386 2.12-1.83 2.16-1.3.044-1.64-1.105-2.04-1.542-.12.066-1.218 1.1-1.594 1.32a2.182 2.182 0 0 1-1.06.295 1.612 1.612 0 0 1-1.301-.598 1.561 1.561 0 0 1-.316-1.286 1.953 1.953 0 0 1 1.033-1.301 5.458 5.458 0 0 0 1.078-.694c-.1-.386-.8-.964-.993-1.477a1.899 1.899 0 0 1 .596-2.065 1.695 1.695 0 0 1 1.928.054c.733.438 1.118 1.797 1.238 1.928l2.36-1.615a9.107 9.107 0 0 1-1.199-4.831c.386-2.6 3.02-4.345 4.328-3.715a6.059 6.059 0 0 0-1.7 4.081 5.664 5.664 0 0 0 .557 3.347l3.88-1.438a8.446 8.446 0 0 1-.16-5.654 5.234 5.234 0 0 1 4.677-2.83 6.826 6.826 0 0 0-2.747 7.595c.578-.135 3.842-1.205 4.24-1.33a7.954 7.954 0 0 1 1.627-5.423 5.976 5.976 0 0 1 3.996-2.431 2.963 2.963 0 0 1 .989.125c-.012.13-.012.13-.258.3l-.193.127a16.509 16.509 0 0 0-3.47 3.786 6.13 6.13 0 0 0-.682 2.838l.013.123 2.988-.432 2.597-.154a7.942 7.942 0 0 1 .771-1.596 7.085 7.085 0 0 1 1.446-1.488zm54.215 24.155a4.7 4.7 0 0 0-2.601 2.011c-1.016 1.57-1.388 3.325-.785 3.364.4.025 1.1 0 1.263 0a21.475 21.475 0 0 1 2.151.096.686.686 0 0 0 .374-.193 3.152 3.152 0 0 0 .268-.44 8.725 8.725 0 0 1 3.084-4.337 3.331 3.331 0 0 1 1.995-.677 3.397 3.397 0 0 1 2.859 1.243c.256.366-1.195-.34-3.44 1.96a7.904 7.904 0 0 0-1.646 2.525c-.023.058.07.216.14.235l3.778 1.126a.455.455 0 0 0 .561-.181 6.886 6.886 0 0 1 1.928-1.955 5.037 5.037 0 0 1 2.793-.771l.193.023c2.12.266 2.236 1.292 2.344 1.455s-.463.154-.72.212a6.518 6.518 0 0 0-3.69 2.294c-.135.256.413.688.413.688a4.27 4.27 0 0 1 2.151 4.434c-.04.314 0 .463-.28.463a3.084 3.084 0 0 1-.835-.625 26.025 26.025 0 0 0-2.944-2.244 14.958 14.958 0 0 0-5.496-2.149 25.691 25.691 0 0 0-4.53-.457 37.399 37.399 0 0 0-10.057 1.486l-4.598 1.37-1.157.36.756-.66a25.907 25.907 0 0 0 2.304-2.495l.517-.667.88-.212 3.778-.835a1.051 1.051 0 0 0 .771-.852 7.102 7.102 0 0 1 1.806-3.935 4.843 4.843 0 0 1 3.568-2.259c1.7-.116 2.4.46 2.107.578zm-27.182 28.465a2.793 2.793 0 0 1-1.087-1.978 1.889 1.889 0 0 1 1.141-1.756 2.672 2.672 0 0 1 2.333.206c.848.594.887 1.195 1.2 2.07a.291.291 0 0 0 .11.052l2.892-1.442.463-.256s.193-.058.116-.328a9.332 9.332 0 0 1-.44-2.872 6.396 6.396 0 0 1 1.035-3.029c1.35-2.313 3.917-2.1 3.663-1.9a7.661 7.661 0 0 0-1.754 3.632 6.362 6.362 0 0 0 .019 2.267c.048.337.077.744.285.86s1.022-.312 1.527-.5c.64-.24 1.52-.35 2.107-.5.34-.093.24-.278.243-.347a10.356 10.356 0 0 1 1.687-5.903 5.413 5.413 0 0 1 3.713-2.103c.54-.054 1.317.193 1.074.35a8.717 8.717 0 0 0-.912.665 9.296 9.296 0 0 0-2.065 2.331 6.996 6.996 0 0 0-.684 4.201 13.244 13.244 0 0 0 3.451-.449.578.578 0 0 0 .355-.409c.418-1.33.867-3.842 2.275-4.78a4.073 4.073 0 0 1 2.423-.941c.655-.04 2.377.486 2 .675a7.133 7.133 0 0 0-2.726 2.061 4.76 4.76 0 0 0-.989 2.452c-.1.497.44.636.44.636a24.704 24.704 0 0 1 2.82.355c.278.05.488-.314.553-.428a6.811 6.811 0 0 1 1.571-1.779 3.563 3.563 0 0 1 2.219-.987c1.745-.01 2.6 1.265 2.365 1.35a6.94 6.94 0 0 0-3.767 2.485c-.054.067-.212.15.046.386a8.143 8.143 0 0 1 2.901 5.141c0 .162.106.87-.14.983a17.082 17.082 0 0 0-3.869-3.437 13.34 13.34 0 0 0-6.464-1.465 28.982 28.982 0 0 0-8.072 1.213 36.915 36.915 0 0 0-8.336 3.699 2.545 2.545 0 0 1 .914 1.195 1.939 1.939 0 0 1-.598 2.354 1.669 1.669 0 0 1-1.531.251c-1.265-.174-1.6-1.465-1.762-1.87a1.928 1.928 0 0 1-.889 1.004 1.876 1.876 0 0 1-2.751-.468 1.77 1.77 0 0 1 .287-2.406l.623-.534zm4.386 15.615a8.868 8.868 0 0 1-.565-1.292 5.537 5.537 0 0 1-.337-2.948 2.843 2.843 0 0 1 2.577-2.269 2.892 2.892 0 0 0-.744 2.439 6.036 6.036 0 0 0 .783 2.481c.106.143.18.087.23.062a21.807 21.807 0 0 1 2.161-1.029.154.154 0 0 0 .056-.12 6.35 6.35 0 0 1 .561-4.943 4.366 4.366 0 0 1 3.14-2.202h0c.058 0 .864.027.916.328a6.3 6.3 0 0 0-2.082 2.552 5.805 5.805 0 0 0-.214 3.237c0 .04.106.08.145.07l2.477-.6a.355.355 0 0 0 .162-.166 7.443 7.443 0 0 1 2.265-4.014 5.619 5.619 0 0 1 3.084-1.294c1.475-.054 1.67.455 1.83.655.108.135-.312-.05-1.008.245a6.724 6.724 0 0 0-2.194 1.75 4.349 4.349 0 0 0-1.031 2.296c0 .054.02.164.052.17a14.518 14.518 0 0 1 2.516.605.193.193 0 0 0 .141-.046 9.226 9.226 0 0 1 1.814-2.429 3.983 3.983 0 0 1 2.541-1.008 2.633 2.633 0 0 1 1.617.503s.578.45.438.52a5.284 5.284 0 0 0-2.579 1.623c-1.002 1.166-1.028 1.465-1.1 1.735s-.042.386.247.578c1.575 1.018 1.768 1.87 1.85 2.423.093.617-.285 1.477-.8.833a5.419 5.419 0 0 0-2.626-1.849 12.999 12.999 0 0 0-4.573-.908 14.051 14.051 0 0 0-4.268.715 17.415 17.415 0 0 0-5.155 2.564l-.686.5a16.935 16.935 0 0 0-1.394 1.166c-.193.193.135.305.3.386 1.816.802 1.86 2.015 1.388 2.564a1.29 1.29 0 0 1-1.558.224c-1.374-.88-1.114-1.646-1.716-1.46-.418.13-.837 1.157-1.157 1.542a1.436 1.436 0 0 1-1.966.266 1.585 1.585 0 0 1-.297-2.18 12.264 12.264 0 0 1 1.072-.904l-1.35-.964a1.506 1.506 0 0 1 .087-2.215 1.627 1.627 0 0 1 2.294.374l.706.95c.054.058.12.05.193-.015l1.735-1.36a.104.104 0 0 0 .021-.139zm8.392-51.04a1.669 1.669 0 0 1-.619 0 .829.829 0 0 1-.515-.334 1.241 1.241 0 0 1-.272-.517c0-.123.116-.23.212-.305a3.021 3.021 0 0 0 .787-.85 2.211 2.211 0 0 0 .256-.983c0-.058-.12-.1-.164-.05-.193.206-.347.505-.594.667a1.267 1.267 0 0 1-.771.218.756.756 0 0 1-.492-.239 1.556 1.556 0 0 1-.258-.522c-.062-.162.193-.285.36-.318a2.442 2.442 0 0 0 1.022-.308 1.157 1.157 0 0 0 .463-.511 1.685 1.685 0 0 0 .096-.528c0-.083.046-.13-.033-.106-.193.062-.322.174-.488.222a1.211 1.211 0 0 1-.937-.058 2.412 2.412 0 0 1-.7-.808c-.038-.058 0-.183.066-.193.3-.058.55-.386.77-.77a1.363 1.363 0 0 0 .123-.251c.042-.112.173-.227.193-.28a2.415 2.415 0 0 0 .06-.698.852.852 0 0 0-.272-.515c-.04-.046-.202-.054-.23 0-.13.24-.052.553-.193.8a2.375 2.375 0 0 1-.603.638c-.12.1-.3.216-.424.154a.867.867 0 0 1-.455-.578 1.39 1.39 0 0 1 .181-.852 9.691 9.691 0 0 1 .964-1.521c.274-.347.56-.578.8-.964.174-.254.3-.8.073-.877s-.362.447-.567.567a8.997 8.997 0 0 0-2.217 1.209 3.811 3.811 0 0 0-.665 1.394c-.104.27-.033.686-.148.95-.044.1-.254.193-.34.135a1.974 1.974 0 0 1-.546-.869 1.132 1.132 0 0 1 .046-.686c.035-.092-.035-.173-.102-.135a1.475 1.475 0 0 0-.667.788 1.885 1.885 0 0 0 .112 1.363 17.697 17.697 0 0 0 1.251 1.826l1.045 1.673a2.142 2.142 0 0 1 .343 1.513 2.843 2.843 0 0 1-.812 1.438c-.052.033-.166.1-.212.052a16.669 16.669 0 0 0-1.33-1.124 5.442 5.442 0 0 0-1.847-.74 11.939 11.939 0 0 0-2.448-.019l-2.572.12a5.897 5.897 0 0 1-2.059-.272 2.282 2.282 0 0 1-1.172-1.012 2.847 2.847 0 0 1-.26-1.587 3.032 3.032 0 0 1 .386-1.259 1.999 1.999 0 0 1 .796-.819 1.797 1.797 0 0 1 1.257-.173 2.149 2.149 0 0 1 .578.374 3.856 3.856 0 0 1 .478.467c.02.025.135 0 .14-.03a3.482 3.482 0 0 0-.241-1.7 7.258 7.258 0 0 0-.756-1.18c-.027-.1.243-.083.34-.1a1.989 1.989 0 0 1 1.294.386 2.227 2.227 0 0 1 .634.667c.02.03.1 0 .1-.03a2.649 2.649 0 0 0-.661-1.928 2.188 2.188 0 0 0-.815-.715c-.193-.07.145-.222.314-.224a2.254 2.254 0 0 1 1.081.16 1.06 1.06 0 0 1 .328.239 1.583 1.583 0 0 0 .226.174c.062.04.127-.077.102-.148a1.639 1.639 0 0 0-.241-.578 16.511 16.511 0 0 0-1.735-1.494c-.046-.04-.162-.096-.193-.145a2.743 2.743 0 0 1-.386-.771c-.04-.104-.193-.206-.25-.355a.607.607 0 0 1 .048-.443c.177-.335.34-.386.713-.563a4.176 4.176 0 0 1 .875-.179c.093-.015.183.087.27.058.05-.015.077-.145-.067-.25a2.092 2.092 0 0 0-1.201-.386 3.593 3.593 0 0 0-1.702.123 3.104 3.104 0 0 1-1.324.386 1.839 1.839 0 0 1-.877-.172.717.717 0 0 1-.386-.486 1.903 1.903 0 0 1 .243-1.002 1.259 1.259 0 0 1 .578-.497c.162-.083.27-.147.258-.26s-.235-.058-.32-.03a5.012 5.012 0 0 0-1.454.567 5.976 5.976 0 0 0-.879 1.008.559.559 0 0 1-.212.152c-.096.042-.193.02-.303.058-.366.14-.736.324-1.1.5s-.636.447-.997.578a3.084 3.084 0 0 1-.869.139h-.025c-.588-.052-1.35-.048-1.488.65a.324.324 0 0 0 .156.364 1.639 1.639 0 0 0 .32.156l.36.13a.436.436 0 0 1 .218.125l.02.03v.068a.094.094 0 0 1 0 .033.281.281 0 0 1-.253.177 1.373 1.373 0 0 1-.933-.12l-.064-.035a.31.31 0 0 0-.397.062 24.346 24.346 0 0 1-1.964 1.442.875.875 0 0 0-.193.158.324.324 0 0 0-.071.148.42.42 0 0 0 0 .139c.025.154-.158.227-.28.264a.337.337 0 0 0-.253.308 1.103 1.103 0 0 0 .023.337.399.399 0 0 0 .578.293l.5-.174a.283.283 0 0 1 .278.044.301.301 0 0 1 .031.039l.013.03v.03a.258.258 0 0 1-.031.147 2.375 2.375 0 0 1-.22.316c-.083.116-.145.3-.01.386a.607.607 0 0 0 .806-.039 1.38 1.38 0 0 0 .262-.386.652.652 0 0 1 .33-.335 2.398 2.398 0 0 1 .916-.193h.02a1.118 1.118 0 0 1 .628.164.308.308 0 0 1 .131.145l.013.04v.096a2.121 2.121 0 0 1-.264.603c-.058.135-.1.303-.15.472s-.154.343-.204.478-.077.147-.193.245l-.92.698a7.736 7.736 0 0 0-1.251 1.523 2.059 2.059 0 0 0-.237.569v.02c-.096.488-.193 1.076-.77.77a14.665 14.665 0 0 1-1.594-1.016 2.202 2.202 0 0 1-.482-.519c-.505-.733-1.128-.083-1.46.45a23.831 23.831 0 0 1-1.735 2.371 1.581 1.581 0 0 0-.243.401 1.928 1.928 0 0 1-.351.557 1.214 1.214 0 0 0-.249.808 2.227 2.227 0 0 1-.441 1.388 1.276 1.276 0 0 0-.353.846l.02.83c.012.204.1.386.328.37a.555.555 0 0 0 .156-.044 4.615 4.615 0 0 0 1.176-.659 1.413 1.413 0 0 0 .147-.137.386.386 0 0 0 .073-.428.414.414 0 0 0-.077-.106l-.077-.073a.501.501 0 0 1-.193-.249c0-.023-.01-.046-.013-.07a.798.798 0 0 1 .021-.28 3.53 3.53 0 0 0 .069-.366.538.538 0 0 1 .193-.374l.578-.467a.821.821 0 0 0 .237-.952.977.977 0 0 1-.048-.193.904.904 0 0 1 0-.102.914.914 0 0 1 .193-.411l.386-.54a1.33 1.33 0 0 1 .808-.607 1.446 1.446 0 0 1 1.172.386 3.399 3.399 0 0 1 .673 1.473 5.043 5.043 0 0 0 .538 1.247.605.605 0 0 0 .939.177l.054-.035a.353.353 0 0 1 .062-.027.281.281 0 0 1 .32.135 5.097 5.097 0 0 0 .52.54c.22.135.033.308-.15.303h-.45a.929.929 0 0 0-.386.064 9.4 9.4 0 0 1-2.776.43.977.977 0 0 0-.181.017.362.362 0 0 0-.26.193.95.95 0 0 0-.042.102l-.096.27a.91.91 0 0 0 0 .661 9.265 9.265 0 0 1 .281 3.956 1.656 1.656 0 0 0 .316 1.349.887.887 0 0 0 .44.281.578.578 0 0 1 .193.102.742.742 0 0 1 .177.501 1.174 1.174 0 0 0 .301.696 2.749 2.749 0 0 0 .864.719 1.124 1.124 0 0 0 .112.044.357.357 0 0 0 .474-.181 2.99 2.99 0 0 0 .285-1.367.488.488 0 0 0-.376-.459.264.264 0 0 0-.067-.015.307.307 0 0 0-.218.077l-.02.014a.465.465 0 0 1-.121.046.359.359 0 0 1-.064 0 .362.362 0 0 1-.066 0 .241.241 0 0 1-.062-.015.324.324 0 0 1-.058-.029.711.711 0 0 1-.26-.322 1.272 1.272 0 0 1-.048-.833l.054-.24a.999.999 0 0 0 .014-.386 1.268 1.268 0 0 0-.1-.376c-.096-.212-.127-.295-.308-.357l-.058-.023a.827.827 0 0 1-.226-.123.33.33 0 0 1-.035-.039.239.239 0 0 1-.019-.193 7.665 7.665 0 0 0 .064-1.88c0-.206-.044-.424.13-.578.432-.362 1.157-.073 1.608.096a10.842 10.842 0 0 0 1.816.468h.015a4.15 4.15 0 0 0 2.832-.771c.077-.066.087-.085.193-.033.328.193.53.42.86.628a8.82 8.82 0 0 0 2.406 1.103 16.521 16.521 0 0 0 3.449-.031 3.073 3.073 0 0 1 .848.181.147.147 0 0 1 .102.152c-.03.424-.193.823-.193 1.245a1.479 1.479 0 0 0 .241.638c.1.193.168.463.3.646l.12.222a2.29 2.29 0 0 1 .039 2.834 10.695 10.695 0 0 1-1.394 1.139 3.15 3.15 0 0 1-1.614.625 1.635 1.635 0 0 0-1.043.443 4.92 4.92 0 0 1-1.103.862.578.578 0 0 0-.351.374 6.824 6.824 0 0 0-.434 1.463c-.062.3.154.386.386.35a5.537 5.537 0 0 0 1.251-.337.409.409 0 0 0 .233-.596l-.135-.386a.44.44 0 0 1-.029-.11v-.087a.386.386 0 0 1 .067-.116.941.941 0 0 1 .251-.22.565.565 0 0 1 .397-.104l.274.066a1.157 1.157 0 0 0 1.376-.497l.106-.193a1.49 1.49 0 0 1 .386-.434 16.91 16.91 0 0 1 3.489-1.718.339.339 0 0 0 .237-.21 1.157 1.157 0 0 0-.023-.453 7.173 7.173 0 0 1-.023-1.303c.012-.3.116-.84.507-.848a.544.544 0 0 1 .386.245 3.308 3.308 0 0 0 1.515 1.083l.528.204a1.519 1.519 0 0 1 .873 1.147.999.999 0 0 1-.173.788 20.743 20.743 0 0 0-1.178 1.704 2.529 2.529 0 0 1-.733.771 14.254 14.254 0 0 0-1.307.997 2.572 2.572 0 0 0-.821.866 18.828 18.828 0 0 0-.603 1.812c-.096.355.12.436.432.366a5.298 5.298 0 0 0 1.334-.536.655.655 0 0 0 .172-.137.386.386 0 0 0 .089-.256.846.846 0 0 0-.193-.44.549.549 0 0 1-.093-.524.467.467 0 0 1 .04-.075.461.461 0 0 1 .27-.193l1.014-.283a2.068 2.068 0 0 0 1.174-.59.696.696 0 0 0 .129-.262h0v-.025l.02-.077a5.517 5.517 0 0 1 2.581-3.258.534.534 0 0 0 .268-.426.921.921 0 0 0-.054-.515l-.964-1.465a2.782 2.782 0 0 1-.52-1.284 3.177 3.177 0 0 1 .36-1.415 3.713 3.713 0 0 0 .231-.386c.168-.366.5-.494.74-.83a7.811 7.811 0 0 0 .706-1.014 8.619 8.619 0 0 0 .505-1.446c.12-.386-.067-.77-.03-1.184a.815.815 0 0 1 .181-.386 1.4 1.4 0 0 1 .657-.509 1.428 1.428 0 0 1 .831.054c.494.143.82.334 1.32.45a1.523 1.523 0 0 0 .788-.048 1.542 1.542 0 0 0 .721-.418c.067-.073.067-.222.002-.212zm-17.25-7.996a.977.977 0 0 1-1.039 1.029c-.193 0-.26-.297-.278-.733v-.495l.027-.605.015-.43v-.5c-.02-.36 0-.725-.054-1.083a7.59 7.59 0 0 0-.308-1.288l-.283-.76c-.05-.116-.147-.25-.204-.386a.991.991 0 0 0-.214-.283c-.13-.12-.316-.177-.432-.312-.038-.048 0-.116.054-.148a1.349 1.349 0 0 1 1.542.193 3.15 3.15 0 0 1 1.157 2.236 12.509 12.509 0 0 1 .017 3.551zM149.72 92.2h35.076a19.401 19.401 0 0 1-5.168-12.945V78.7h-32a60.085 60.085 0 0 0 2.105 13.504zm50.72 16.932h-43.62q1.735 3.13 3.755 6.227a69.126 69.126 0 0 0 5.542 7.295h34.314zm56.258-60.513h-32.194v11.9h31.982l.206-11.885zm.362-20a.598.598 0 0 0-.087-.04 138.992 138.992 0 0 0-17.654-5.783 164.225 164.225 0 0 0-25.202-4.089l-11.72-.54v13.22H257l.048-2.762zm-34.546 19.594l-41.13-.017c-.08 0-.1.04-.1.116l.046 30.5a19 19 0 0 0 6.824 14.275 21.67 21.67 0 0 0 13.934 5.303 21.398 21.398 0 0 0 10.742-3.034 20.531 20.531 0 0 0 8.891-10.645 14.474 14.474 0 0 0 .881-4.715l.013-31.704a.096.096 0 0 0-.108-.093zm-.867 31.538a14.05 14.05 0 0 1-.839 4.536 19.708 19.708 0 0 1-8.482 10.236 20.265 20.265 0 0 1-10.242 2.919 20.569 20.569 0 0 1-13.288-5.101 18.331 18.331 0 0 1-6.506-13.73l-.025-29.337c0-.077 0-.116.1-.116l39.218.014a.093.093 0 0 1 .102.087zm-11.9 18.86a20.448 20.448 0 0 1-4.272 1.12h0a3.154 3.154 0 0 0 .137.353.808.808 0 0 0 .771.528c.47.07.82-.26 1.17-1.04.052-.064.25-.15.3-.077.366.605 1.214 1.157 1.797.848a.964.964 0 0 0 .281-1.38l-.183-.357zm73.498-88.06h3.104a4.927 4.927 0 0 1 2.666.615 2.468 2.468 0 0 1 .964 2.248 3.879 3.879 0 0 1-.143 1.103 1.912 1.912 0 0 1-.569.864 3.113 3.113 0 0 1-1.203.588 8.166 8.166 0 0 1-2.084.214h-2.73zm-2.063-1.835v16.862h2.063v-7.572h3.296l3.296 7.566h2.267l-3.47-7.865a4.729 4.729 0 0 0 2.797-1.561 4.129 4.129 0 0 0 .999-2.699 5.916 5.916 0 0 0-.235-1.625 3.9 3.9 0 0 0-.848-1.542 4.405 4.405 0 0 0-1.712-1.13 7.711 7.711 0 0 0-2.836-.438zm.868 18.68a11.083 11.083 0 0 1-6.049-6.049 11.925 11.925 0 0 1 0-8.997 11.048 11.048 0 0 1 6.049-6.044 11.343 11.343 0 0 1 15.037 6.044 11.925 11.925 0 0 1 0 8.997 11.048 11.048 0 0 1-6.044 6.049 11.925 11.925 0 0 1-8.997 0m9.762 1.882a13.446 13.446 0 0 0 4.278-2.901 13.664 13.664 0 0 0 2.892-4.28 13.39 13.39 0 0 0 0-10.499 13.745 13.745 0 0 0-2.892-4.278 13.446 13.446 0 0 0-4.278-2.901 13.543 13.543 0 0 0-10.533 0 13.533 13.533 0 0 0-4.278 2.901 14.015 14.015 0 0 0-2.892 4.278 13.479 13.479 0 0 0 0 10.499 13.932 13.932 0 0 0 2.892 4.28 13.533 13.533 0 0 0 4.278 2.901 13.566 13.566 0 0 0 10.533 0"/></svg>