<svg xmlns="http://www.w3.org/2000/svg" width="400" height="200" fill-rule="evenodd" viewBox="0 0 20.448 10.236" ><path d="M15.044 5.056c4.356-2.37 8.118-1.954 2.818 1.33 1.233-1.618-.112-2.05-2.818-1.33z" fill="#231f20"/><path d="M15.044 5.056c4.324-2.354 8.086-1.938 2.818 1.33 1.233-1.618-.096-2.05-2.818-1.33z" fill="#292424"/><path d="M15.06 5.056c4.292-2.338 8.04-1.92 2.818 1.33 1.217-1.634-.112-2.05-2.818-1.33z" fill="#332d2d"/><path d="M15.06 5.056c4.26-2.322 8-1.905 2.802 1.33 1.233-1.634-.096-2.05-2.802-1.33z" fill="#383231"/><path d="M15.076 5.04c4.243-2.306 7.958-1.873 2.802 1.33 1.217-1.618-.096-2.034-2.802-1.33z" fill="#3e3634"/><path d="M15.076 5.04c4.21-2.3 7.9-1.857 2.802 1.33 1.217-1.618-.096-2.034-2.802-1.33z" fill="#453b38"/><path d="M15.092 5.04c4.18-2.274 7.862-1.84 2.802 1.33 1.2-1.618-.112-2.034-2.802-1.33z" fill="#4c413d"/><path d="M15.092 5.04c4.147-2.258 7.83-1.8 2.786 1.33 1.217-1.618-.08-2.034-2.786-1.33z" fill="#51443f"/><path d="M15.108 5.04c4.115-2.242 7.782-1.793 2.786 1.33 1.2-1.618-.096-2.05-2.786-1.33z" fill="#554540"/><path d="M15.108 5.024c4.1-2.226 7.75-1.777 2.786 1.313 1.2-1.585-.096-2.017-2.786-1.313z" fill="#5c4a44"/><path d="M15.124 5.024c4.067-2.2 7.702-1.76 2.786 1.313 1.185-1.6-.112-2.017-2.786-1.313z" fill="#604b44"/><path d="M15.124 5.024c4.035-2.194 7.654-1.73 2.786 1.313 1.185-1.6-.096-2.017-2.786-1.313z" fill="#664e46"/><path d="M15.14 5.024c4.003-2.178 7.622-1.713 2.77 1.313 1.185-1.6-.096-2.017-2.77-1.313z" fill="#6a5047"/><path d="M15.14 5.008c3.97-2.162 7.574-1.697 2.77 1.313 1.185-1.585-.096-2-2.77-1.313z" fill="#6e5046"/><path d="M15.156 5.008c3.955-2.146 7.526-1.665 2.77 1.313 1.17-1.585-.096-2-2.77-1.313z" fill="#735246"/><path d="M15.156 5.008c3.923-2.13 7.494-1.65 2.77 1.313 1.17-1.585-.096-2-2.77-1.313z" fill="#775346"/><path d="M15.172 5.008c3.89-2.114 7.446-1.633 2.77 1.313 1.153-1.585-.112-2-2.77-1.313z" fill="#7c5548"/><path d="M15.188 5.008c3.86-2.098 7.398-1.617 2.754 1.297 1.153-1.57-.096-1.986-2.754-1.297z" fill="#805446"/><path d="M15.188 4.992c3.843-2.082 7.366-1.585 2.754 1.313 1.153-1.57-.096-1.985-2.754-1.313z" fill="#855647"/><path d="M15.204 4.992c3.81-2.066 7.318-1.57 2.754 1.313 1.137-1.585-.112-1.985-2.754-1.313z" fill="#895545"/><path d="M15.204 4.992c3.78-2.05 7.27-1.553 2.754 1.297 1.137-1.57-.112-1.97-2.754-1.297z" fill="#8e5745"/><path d="M15.22 4.992c3.747-2.034 7.238-1.52 2.754 1.297 1.12-1.57-.112-1.97-2.754-1.297z" fill="#915745"/><path d="M15.22 4.992c3.715-2.018 7.2-1.505 2.738 1.297 1.137-1.57-.096-1.97-2.738-1.297z" fill="#955643"/><path d="M15.236 4.976c3.7-2.002 7.142-1.5 2.738 1.297 1.12-1.553-.112-1.97-2.738-1.297z" fill="#9b5743"/><path d="M15.236 4.976c3.667-1.986 7.1-1.473 2.738 1.297 1.12-1.553-.096-1.97-2.738-1.297z" fill="#9e5541"/><path d="M15.252 4.976c3.635-1.97 7.062-1.44 2.738 1.297 1.105-1.553-.112-1.97-2.738-1.297z" fill="#a45641"/><path d="M15.252 4.976c3.603-1.954 7.014-1.425 2.722 1.297 1.12-1.553-.096-1.97-2.722-1.297z" fill="#a7543f"/><path d="M15.268 4.96c3.57-1.938 6.982-1.4 2.722 1.297 1.105-1.553-.096-1.954-2.722-1.297z" fill="#ab543e"/><path d="M15.268 4.96C18.823 3.04 22.202 3.583 18 6.257c1.105-1.553-.096-1.954-2.722-1.297z" fill="#b1523c"/><path d="M15.284 4.96c3.523-1.905 6.886-1.36 2.722 1.297 1.105-1.553-.112-1.954-2.722-1.297z" fill="#b6523b"/><path d="M15.284 4.96c3.5-1.9 6.854-1.345 2.722 1.297 1.105-1.553-.112-1.954-2.722-1.297z" fill="#ba513a"/><path d="M15.3 4.96c3.46-1.873 6.806-1.33 2.706 1.28C19.11 4.704 17.9 4.303 15.3 4.96z" fill="#be4d36"/><path d="M15.316 4.944c3.427-1.857 6.757-1.297 2.706 1.28 1.1-1.52-.112-1.92-2.706-1.28z" fill="#c34c35"/><path d="M15.316 4.944c3.4-1.84 6.725-1.28 2.706 1.28 1.1-1.52-.112-1.92-2.706-1.28z" fill="#c74832"/><path d="M15.332 4.944c3.38-1.825 6.677-1.265 2.706 1.28 1.073-1.52-.112-1.92-2.706-1.28z" fill="#cc4631"/><path d="M15.332 4.944c3.347-1.8 6.63-1.233 2.706 1.28 1.073-1.537-.112-1.92-2.706-1.28z" fill="#d0432f"/><path d="M15.348 4.944c3.315-1.793 6.597-1.217 2.7 1.28 1.073-1.537-.112-1.92-2.7-1.28z" fill="#d33e2c"/><path d="M15.348 4.928c3.283-1.777 6.55-1.2 2.7 1.28 1.073-1.52-.112-1.905-2.7-1.28z" fill="#d9382a"/><path d="M15.365 4.928c3.267-1.76 6.5-1.185 2.7 1.28 1.057-1.52-.112-1.92-2.7-1.28z" fill="#de3428"/><path d="M15.365 4.928c3.235-1.745 6.47-1.153 2.7 1.28 1.057-1.52-.112-1.92-2.7-1.28z" fill="#e22e27"/><path d="M15.38 4.928c3.203-1.73 6.42-1.137 2.674 1.28 1.057-1.52-.112-1.92-2.674-1.28z" fill="#e52424"/><path d="M15.38 4.928c3.17-1.713 6.373-1.12 2.674 1.28 1.057-1.52-.096-1.92-2.674-1.28z" fill="#ed1c24"/><path d="M19.384 3.695c.8-.08 1.09.16.88.657 0-.417-.32-.625-.88-.657z" fill="#808285"/><path d="M19.4 3.695c.785-.064 1.073.16.865.657 0-.417-.32-.625-.865-.657z" fill="#86888a"/><path d="M19.4 3.695c.77-.064 1.057.16.85.64.016-.4-.305-.592-.85-.64z" fill="#8a8c8e"/><path d="M19.416 3.695c.753-.064 1.04.176.85.64 0-.4-.32-.592-.85-.64z" fill="#8f9194"/><path d="M19.432 3.695c.737-.064 1.025.176.833.625 0-.37-.305-.577-.833-.625z" fill="#95979a"/><path d="M19.448 3.695c.72-.064 1.01.176.817.625 0-.37-.305-.577-.817-.625z" fill="#9b9da0"/><path d="M19.464 3.695c.705-.064.993.176.8.608 0-.352-.304-.56-.8-.608z" fill="#a1a3a6"/><path d="M19.48 3.695c.69-.048.977.176.8.608-.015-.352-.32-.56-.8-.608z" fill="#a7a9ac"/><path d="M19.48 3.695c.673-.048.96.176.785.592 0-.336-.305-.544-.785-.592z" fill="#adafb2"/><path d="M19.496 3.695c.657-.048.93.176.77.592 0-.336-.29-.544-.77-.592z" fill="#b1b3b6"/><path d="M19.512 3.695c.64-.048.913.176.753.592 0-.336-.29-.544-.753-.592z" fill="#b8babc"/><path d="M19.528 3.695c.625-.048.897.192.737.576 0-.32-.29-.528-.737-.576z" fill="#bec0c2"/><path d="M19.544 3.695c.608-.048.88.192.737.576-.016-.32-.305-.528-.737-.576z" fill="#c4c6c8"/><path d="M19.544 3.695c.592-.032.865.192.72.56 0-.304-.288-.512-.72-.56z" fill="#cbccce"/><path d="M19.56 3.695c.576-.032.85.192.705.56 0-.304-.273-.512-.705-.56z" fill="#d1d3d4"/><path d="M19.576 3.695c.56-.032.833.192.69.544 0-.288-.273-.496-.69-.544z" fill="#d8d9da"/><path d="M19.592 3.695c.544-.032.817.192.673.544 0-.288-.273-.496-.673-.544z" fill="#dcddde"/><path d="M19.608 3.695c.528-.032.8.192.673.528-.016-.272-.29-.48-.673-.528z" fill="#e2e3e4"/><path d="M19.624 3.71c.512-.032.77.192.657.528-.016-.288-.29-.496-.657-.528z" fill="#e9e9ea"/><path d="M19.624 3.71c.496-.016.753.208.64.512 0-.272-.256-.48-.64-.512z" fill="#efeff0"/><path d="M19.64 3.71c.48-.016.737.208.625.512 0-.272-.257-.48-.625-.512z" fill="#f6f6f6"/><path d="M19.656 3.71c.464-.016.72.208.625.496-.016-.256-.273-.464-.625-.496z" fill="#fff"/><path d="M1.3 5.072h1.392v.496l.48-.496h1.122v1.553h-.977V5.97l-.625.656H1.77V5.97l-.625.656H.025zM6.364 6.53v-.4c-1.345.288-1.585-.464 0-.256v-.45c-2.658-.656-2.578 1.8 0 1.105zm8.36-1.17h.913v.112c.608-.224 1.057-.208 1.36.065.097.096.097.192.097.336v.768h-.913v-.704c-.112-.144-.416-.144-.56 0v.704h-.897zM6.51 6.625V5.072h1.04v.96h.673c-.048-.464.448-.96 1.49-.56v-.097h.913V6.64h-.913v-.096c-.657.24-1.105.096-1.33-.144v.24zm2.963-.848c.176 0 .304.112.304.256s-.144.256-.304.256c-.176 0-.304-.112-.304-.256-.016-.144.128-.256.304-.256zm3.795.048h.56c-.016-.256-.56-.272-.56 0zm1.25.4h-.32c-.257.16-.737.128-.945-.096h1.313a.467.467 0 0 0 .032-.144c0-.368-.528-.673-1.17-.673-.48 0-.897.176-1.073.417v-.417c-.256 0-.496.048-.704.21v-.145h-.913V6.64h.913v-.448c.08-.144.304-.176.608-.16.032.32.448.592.993.624h.16c.64 0 1.01-.256 1.105-.432z" fill="#231f20" stroke="#231f20" stroke-miterlimit="22.926" stroke-width=".035"/></svg>